<svg width="32" height="32" viewBox="0 0 32 32" fill="none" xmlns="http://www.w3.org/2000/svg">
<path d="M21.3337 10.6666H10.667V21.3333H21.3337V10.6666Z" stroke="#004A42" stroke-width="2" stroke-linecap="round" stroke-linejoin="round"/>
<path d="M6.66699 29.3334C8.86699 29.3334 10.667 27.5334 10.667 25.3334V21.3334H6.66699C4.46699 21.3334 2.66699 23.1334 2.66699 25.3334C2.66699 27.5334 4.46699 29.3334 6.66699 29.3334Z" stroke="#004A42" stroke-width="2" stroke-linecap="round" stroke-linejoin="round"/>
<path opacity="0.4" d="M6.66699 10.6666H10.667V6.66663C10.667 4.46663 8.86699 2.66663 6.66699 2.66663C4.46699 2.66663 2.66699 4.46663 2.66699 6.66663C2.66699 8.86663 4.46699 10.6666 6.66699 10.6666Z" stroke="#004A42" stroke-width="2" stroke-linecap="round" stroke-linejoin="round"/>
<path d="M21.333 10.6666H25.333C27.533 10.6666 29.333 8.86663 29.333 6.66663C29.333 4.46663 27.533 2.66663 25.333 2.66663C23.133 2.66663 21.333 4.46663 21.333 6.66663V10.6666Z" stroke="#004A42" stroke-width="2" stroke-linecap="round" stroke-linejoin="round"/>
<path opacity="0.4" d="M25.333 29.3334C27.533 29.3334 29.333 27.5334 29.333 25.3334C29.333 23.1334 27.533 21.3334 25.333 21.3334H21.333V25.3334C21.333 27.5334 23.133 29.3334 25.333 29.3334Z" stroke="#004A42" stroke-width="2" stroke-linecap="round" stroke-linejoin="round"/>
</svg>
