<svg width="16" height="16" viewBox="0 0 16 16" fill="none" xmlns="http://www.w3.org/2000/svg">
<path fill-rule="evenodd" clip-rule="evenodd" d="M7.99933 9.41391L13.6563 15.0709C13.8449 15.2531 14.0975 15.3539 14.3597 15.3516C14.6219 15.3493 14.8727 15.2441 15.0582 15.0587C15.2436 14.8733 15.3487 14.6225 15.351 14.3603C15.3533 14.0981 15.2525 13.8455 15.0703 13.6569L9.41333 7.99991L15.0703 2.34291C15.2525 2.1543 15.3533 1.9017 15.351 1.6395C15.3487 1.37731 15.2436 1.1265 15.0582 0.941087C14.8727 0.755679 14.6219 0.65051 14.3597 0.648231C14.0975 0.645953 13.8449 0.746747 13.6563 0.928905L7.99933 6.58591L2.34233 0.928905C2.15288 0.75125 1.90175 0.654271 1.64207 0.658487C1.38238 0.662704 1.13453 0.767787 0.950945 0.951499C0.767362 1.13521 0.662455 1.38314 0.658422 1.64283C0.654389 1.90251 0.751546 2.15358 0.929335 2.34291L6.58534 7.99991L0.928335 13.6569C0.832825 13.7492 0.756643 13.8595 0.704234 13.9815C0.651825 14.1035 0.624238 14.2347 0.623085 14.3675C0.621931 14.5003 0.647232 14.632 0.697513 14.7549C0.747794 14.8778 0.822047 14.9894 0.91594 15.0833C1.00983 15.1772 1.12148 15.2514 1.24438 15.3017C1.36728 15.352 1.49896 15.3773 1.63174 15.3762C1.76452 15.375 1.89574 15.3474 2.01774 15.295C2.13974 15.2426 2.25009 15.1664 2.34233 15.0709L7.99933 9.41391Z" fill="#02171A"/>
</svg>
