<svg width="140" height="53" viewBox="0 0 140 53" fill="none" xmlns="http://www.w3.org/2000/svg">
<g filter="url(#filter0_d_435_7780)">
<rect x="11.5" y="0.880737" width="117.768" height="29.8454" rx="3.22653" fill="#BFDDBC" shape-rendering="crispEdges"/>
<rect x="22.3896" y="10.3587" width="10.8896" height="10.8896" rx="5.44478" fill="#02171A"/>
<path d="M27.8342 20.3407C30.3297 20.3407 32.3715 18.2989 32.3715 15.8034C32.3715 13.3079 30.3297 11.2661 27.8342 11.2661C25.3387 11.2661 23.2969 13.3079 23.2969 15.8034C23.2969 18.2989 25.3387 20.3407 27.8342 20.3407Z" stroke="white" stroke-width="0.680078" stroke-linecap="round" stroke-linejoin="round"/>
<path d="M26.0195 15.8035H29.6494" stroke="white" stroke-width="0.680078" stroke-linecap="round" stroke-linejoin="round"/>
<path d="M27.834 17.6184V13.9885" stroke="white" stroke-width="0.680078" stroke-linecap="round" stroke-linejoin="round"/>
<path d="M54.2469 12.0383H54.9711L57.7343 18.8035H56.8196L56.0192 16.8216H53.1798L52.3889 18.8035H51.4742L54.2469 12.0383ZM55.8286 16.1546L54.609 13.0293L53.3513 16.1546H55.8286ZM58.0403 16.3261C58.0403 15.856 58.1356 15.4273 58.3261 15.0398C58.523 14.6459 58.7898 14.3315 59.1265 14.0965C59.4695 13.8614 59.8602 13.7439 60.2985 13.7439C60.6987 13.7439 61.0576 13.8487 61.3752 14.0583C61.6928 14.268 61.9405 14.5221 62.1184 14.8206V11.8478H62.9569V17.8506C62.9569 17.9523 62.976 18.0285 63.0141 18.0793C63.0585 18.1238 63.1284 18.1492 63.2237 18.1555V18.8035C63.0649 18.8289 62.941 18.8416 62.8521 18.8416C62.6869 18.8416 62.5408 18.7844 62.4138 18.6701C62.2931 18.5557 62.2327 18.4287 62.2327 18.2889V17.8697C62.0358 18.1873 61.7722 18.4382 61.4419 18.6224C61.1116 18.8066 60.7686 18.8988 60.4128 18.8988C60.0698 18.8988 59.7522 18.8321 59.46 18.6987C59.1741 18.5589 58.9232 18.3683 58.7073 18.127C58.4976 17.8856 58.3325 17.6124 58.2118 17.3075C58.0974 16.9963 58.0403 16.6691 58.0403 16.3261ZM62.1184 17.0598V15.6305C62.0422 15.4145 61.9183 15.2208 61.7468 15.0493C61.5753 14.8714 61.3815 14.7317 61.1656 14.63C60.9559 14.5221 60.7463 14.4681 60.5367 14.4681C60.289 14.4681 60.0635 14.5221 59.8602 14.63C59.6633 14.7317 59.4918 14.8714 59.3457 15.0493C59.2059 15.2208 59.0979 15.4177 59.0217 15.6401C58.9455 15.8624 58.9074 16.0942 58.9074 16.3356C58.9074 16.5834 58.9486 16.8184 59.0312 17.0407C59.1202 17.263 59.2408 17.46 59.3933 17.6315C59.5521 17.803 59.7331 17.9364 59.9364 18.0317C60.146 18.127 60.3715 18.1746 60.6129 18.1746C60.7654 18.1746 60.921 18.146 61.0798 18.0888C61.245 18.0317 61.4006 17.9523 61.5467 17.8506C61.6928 17.749 61.8167 17.6315 61.9183 17.4981C62.0199 17.3583 62.0866 17.2122 62.1184 17.0598ZM64.0327 16.3261C64.0327 15.856 64.128 15.4273 64.3186 15.0398C64.5155 14.6459 64.7823 14.3315 65.1189 14.0965C65.462 13.8614 65.8526 13.7439 66.2909 13.7439C66.6911 13.7439 67.05 13.8487 67.3676 14.0583C67.6853 14.268 67.933 14.5221 68.1109 14.8206V11.8478H68.9493V17.8506C68.9493 17.9523 68.9684 18.0285 69.0065 18.0793C69.051 18.1238 69.1209 18.1492 69.2161 18.1555V18.8035C69.0573 18.8289 68.9335 18.8416 68.8445 18.8416C68.6794 18.8416 68.5333 18.7844 68.4062 18.6701C68.2855 18.5557 68.2252 18.4287 68.2252 18.2889V17.8697C68.0283 18.1873 67.7647 18.4382 67.4343 18.6224C67.104 18.8066 66.761 18.8988 66.4053 18.8988C66.0623 18.8988 65.7446 18.8321 65.4524 18.6987C65.1666 18.5589 64.9157 18.3683 64.6997 18.127C64.4901 17.8856 64.3249 17.6124 64.2042 17.3075C64.0899 16.9963 64.0327 16.6691 64.0327 16.3261ZM68.1109 17.0598V15.6305C68.0346 15.4145 67.9108 15.2208 67.7392 15.0493C67.5677 14.8714 67.374 14.7317 67.158 14.63C66.9484 14.5221 66.7388 14.4681 66.5291 14.4681C66.2814 14.4681 66.0559 14.5221 65.8526 14.63C65.6557 14.7317 65.4842 14.8714 65.3381 15.0493C65.1984 15.2208 65.0904 15.4177 65.0141 15.6401C64.9379 15.8624 64.8998 16.0942 64.8998 16.3356C64.8998 16.5834 64.9411 16.8184 65.0237 17.0407C65.1126 17.263 65.2333 17.46 65.3857 17.6315C65.5445 17.803 65.7256 17.9364 65.9289 18.0317C66.1385 18.127 66.364 18.1746 66.6054 18.1746C66.7578 18.1746 66.9135 18.146 67.0723 18.0888C67.2374 18.0317 67.3931 17.9523 67.5392 17.8506C67.6853 17.749 67.8091 17.6315 67.9108 17.4981C68.0124 17.3583 68.0791 17.2122 68.1109 17.0598ZM72.4352 16.3261C72.4352 15.856 72.5304 15.4273 72.721 15.0398C72.9179 14.6459 73.1847 14.3315 73.5214 14.0965C73.8644 13.8614 74.2551 13.7439 74.6934 13.7439C75.0936 13.7439 75.4525 13.8487 75.7701 14.0583C76.0877 14.268 76.3354 14.5221 76.5133 14.8206V11.8478H77.3518V17.8506C77.3518 17.9523 77.3709 18.0285 77.409 18.0793C77.4534 18.1238 77.5233 18.1492 77.6186 18.1555V18.8035C77.4598 18.8289 77.3359 18.8416 77.247 18.8416C77.0818 18.8416 76.9357 18.7844 76.8087 18.6701C76.688 18.5557 76.6276 18.4287 76.6276 18.2889V17.8697C76.4307 18.1873 76.1671 18.4382 75.8368 18.6224C75.5065 18.8066 75.1635 18.8988 74.8077 18.8988C74.4647 18.8988 74.1471 18.8321 73.8549 18.6987C73.569 18.5589 73.3181 18.3683 73.1021 18.127C72.8925 17.8856 72.7274 17.6124 72.6067 17.3075C72.4923 16.9963 72.4352 16.6691 72.4352 16.3261ZM76.5133 17.0598V15.6305C76.4371 15.4145 76.3132 15.2208 76.1417 15.0493C75.9702 14.8714 75.7764 14.7317 75.5605 14.63C75.3508 14.5221 75.1412 14.4681 74.9316 14.4681C74.6839 14.4681 74.4584 14.5221 74.2551 14.63C74.0582 14.7317 73.8867 14.8714 73.7405 15.0493C73.6008 15.2208 73.4928 15.4177 73.4166 15.6401C73.3404 15.8624 73.3022 16.0942 73.3022 16.3356C73.3022 16.5834 73.3435 16.8184 73.4261 17.0407C73.515 17.263 73.6357 17.46 73.7882 17.6315C73.947 17.803 74.128 17.9364 74.3313 18.0317C74.5409 18.127 74.7664 18.1746 75.0078 18.1746C75.1603 18.1746 75.3159 18.146 75.4747 18.0888C75.6399 18.0317 75.7955 17.9523 75.9416 17.8506C76.0877 17.749 76.2116 17.6315 76.3132 17.4981C76.4148 17.3583 76.4815 17.2122 76.5133 17.0598ZM80.924 18.8988C80.5493 18.8988 80.2094 18.8321 79.9045 18.6987C79.5996 18.5589 79.336 18.3715 79.1136 18.1365C78.8913 17.8951 78.7198 17.6188 78.5991 17.3075C78.4784 16.9963 78.4181 16.6691 78.4181 16.3261C78.4181 15.9767 78.4784 15.6464 78.5991 15.3351C78.7198 15.0239 78.8913 14.7507 79.1136 14.5157C79.336 14.2743 79.5996 14.0869 79.9045 13.9535C80.2158 13.8138 80.5556 13.7439 80.924 13.7439C81.2988 13.7439 81.6387 13.8138 81.9436 13.9535C82.2485 14.0869 82.5121 14.2743 82.7344 14.5157C82.9631 14.7507 83.1378 15.0239 83.2585 15.3351C83.3792 15.6464 83.4395 15.9767 83.4395 16.3261C83.4395 16.6691 83.3792 16.9963 83.2585 17.3075C83.1378 17.6188 82.9663 17.8951 82.744 18.1365C82.5216 18.3715 82.2548 18.5589 81.9436 18.6987C81.6387 18.8321 81.2988 18.8988 80.924 18.8988ZM79.2756 16.3356C79.2756 16.6786 79.3487 16.9899 79.4948 17.2694C79.6472 17.5489 79.8473 17.7712 80.0951 17.9364C80.3428 18.0952 80.6191 18.1746 80.924 18.1746C81.2289 18.1746 81.5053 18.092 81.753 17.9269C82.0071 17.7617 82.2072 17.5394 82.3533 17.2599C82.5057 16.974 82.582 16.6596 82.582 16.3166C82.582 15.9735 82.5057 15.6623 82.3533 15.3828C82.2072 15.1033 82.0071 14.881 81.753 14.7158C81.5053 14.5506 81.2289 14.4681 80.924 14.4681C80.6191 14.4681 80.3428 14.5538 80.0951 14.7253C79.8473 14.8905 79.6472 15.1128 79.4948 15.3923C79.3487 15.6718 79.2756 15.9862 79.2756 16.3356ZM86.6566 18.8988C86.2818 18.8988 85.9388 18.8321 85.6275 18.6987C85.3226 18.5589 85.0558 18.3683 84.8272 18.127C84.6048 17.8856 84.4301 17.6092 84.3031 17.298C84.1824 16.9867 84.1221 16.6564 84.1221 16.307C84.1221 15.837 84.2269 15.4082 84.4365 15.0207C84.6461 14.6332 84.9415 14.3251 85.3226 14.0965C85.7038 13.8614 86.1453 13.7439 86.6471 13.7439C87.1362 13.7439 87.5618 13.8551 87.9239 14.0774C88.2923 14.2934 88.5655 14.5856 88.7433 14.954L87.9239 15.2113C87.7968 14.9762 87.619 14.7952 87.3903 14.6682C87.1616 14.5348 86.9075 14.4681 86.628 14.4681C86.3231 14.4681 86.0436 14.5475 85.7895 14.7063C85.5418 14.8651 85.3449 15.0842 85.1988 15.3637C85.0527 15.6369 84.9796 15.9513 84.9796 16.307C84.9796 16.6564 85.0527 16.974 85.1988 17.2599C85.3512 17.5394 85.5513 17.7617 85.7991 17.9269C86.0531 18.092 86.3326 18.1746 86.6376 18.1746C86.8345 18.1746 87.0219 18.1397 87.1997 18.0698C87.3839 17.9999 87.5427 17.9078 87.6761 17.7935C87.8159 17.6728 87.9112 17.5425 87.962 17.4028L88.7814 17.6505C88.6798 17.8919 88.5242 18.1079 88.3145 18.2985C88.1113 18.4827 87.8667 18.6288 87.5809 18.7368C87.3014 18.8448 86.9933 18.8988 86.6566 18.8988ZM89.6839 16.812V13.8297H90.5224V16.6501C90.5224 17.1582 90.6113 17.5394 90.7892 17.7935C90.967 18.0476 91.2306 18.1746 91.58 18.1746C91.8087 18.1746 92.0279 18.127 92.2375 18.0317C92.4535 17.93 92.6472 17.7871 92.8187 17.6029C92.9902 17.4187 93.1236 17.1995 93.2189 16.9454V13.8297H94.0574V17.8506C94.0574 17.9523 94.0764 18.0285 94.1146 18.0793C94.159 18.1238 94.2289 18.1492 94.3242 18.1555V18.8035C94.2289 18.8162 94.1527 18.8225 94.0955 18.8225C94.0447 18.8289 93.9939 18.8321 93.9431 18.8321C93.7842 18.8321 93.6477 18.7844 93.5333 18.6891C93.419 18.5875 93.3586 18.4636 93.3523 18.3175L93.3332 17.7363C93.1173 18.1047 92.8251 18.3906 92.4566 18.5938C92.0946 18.7971 91.6975 18.8988 91.2656 18.8988C90.7447 18.8988 90.3509 18.7241 90.0841 18.3747C89.8173 18.019 89.6839 17.4981 89.6839 16.812ZM102.953 18.8035H102.114V16.0212C102.114 15.5003 102.029 15.116 101.857 14.8683C101.692 14.6205 101.444 14.4966 101.114 14.4966C100.777 14.4966 100.472 14.6205 100.199 14.8683C99.9261 15.1096 99.7323 15.4241 99.618 15.8116V18.8035H98.7795V16.0212C98.7795 15.494 98.6969 15.1096 98.5318 14.8683C98.3666 14.6205 98.1189 14.4966 97.7886 14.4966C97.4582 14.4966 97.1533 14.6173 96.8738 14.8587C96.6007 15.0938 96.4069 15.4082 96.2926 15.802V18.8035H95.4541V13.8297H96.2164V14.8968C96.4197 14.5284 96.6833 14.2457 97.0072 14.0488C97.3312 13.8455 97.6965 13.7439 98.103 13.7439C98.5159 13.7439 98.8462 13.8582 99.0939 14.0869C99.3417 14.3093 99.4941 14.5983 99.5513 14.954C99.7736 14.5602 100.044 14.2616 100.361 14.0583C100.679 13.8487 101.041 13.7439 101.447 13.7439C101.733 13.7439 101.972 13.7979 102.162 13.9059C102.359 14.0075 102.515 14.1536 102.629 14.3442C102.743 14.5284 102.826 14.7476 102.877 15.0017C102.928 15.2557 102.953 15.5321 102.953 15.8306V18.8035ZM106.458 18.8988C106.083 18.8988 105.74 18.8321 105.429 18.6987C105.124 18.5589 104.857 18.3715 104.628 18.1365C104.406 17.8951 104.231 17.6188 104.104 17.3075C103.984 16.9963 103.923 16.6659 103.923 16.3166C103.923 15.8465 104.031 15.4177 104.247 15.0302C104.463 14.6428 104.762 14.3315 105.143 14.0965C105.53 13.8614 105.972 13.7439 106.467 13.7439C106.969 13.7439 107.404 13.8646 107.773 14.106C108.147 14.341 108.436 14.6523 108.64 15.0398C108.849 15.4209 108.954 15.8338 108.954 16.2785C108.954 16.342 108.951 16.4055 108.945 16.469C108.945 16.5262 108.941 16.5707 108.935 16.6024H104.809C104.835 16.9264 104.924 17.2154 105.076 17.4695C105.235 17.7172 105.438 17.9142 105.686 18.0603C105.934 18.2 106.2 18.2699 106.486 18.2699C106.791 18.2699 107.077 18.1937 107.344 18.0412C107.617 17.8887 107.804 17.6886 107.906 17.4409L108.63 17.641C108.522 17.8824 108.36 18.0984 108.144 18.2889C107.935 18.4795 107.684 18.6288 107.392 18.7368C107.106 18.8448 106.794 18.8988 106.458 18.8988ZM104.781 16.0212H108.173C108.147 15.6972 108.055 15.4114 107.897 15.1636C107.738 14.9159 107.534 14.7222 107.287 14.5824C107.039 14.4427 106.766 14.3728 106.467 14.3728C106.175 14.3728 105.905 14.4427 105.657 14.5824C105.41 14.7222 105.206 14.9159 105.048 15.1636C104.895 15.4114 104.806 15.6972 104.781 16.0212ZM114.203 18.8035H113.364V16.0212C113.364 15.494 113.281 15.1096 113.116 14.8683C112.958 14.6205 112.713 14.4966 112.383 14.4966C112.154 14.4966 111.925 14.5538 111.697 14.6682C111.474 14.7825 111.274 14.9381 111.096 15.135C110.925 15.3256 110.801 15.5479 110.725 15.802V18.8035H109.886V13.8297H110.648V14.8968C110.782 14.6618 110.953 14.4585 111.163 14.287C111.373 14.1155 111.611 13.9821 111.878 13.8868C112.144 13.7916 112.424 13.7439 112.716 13.7439C113.002 13.7439 113.24 13.7979 113.431 13.9059C113.628 14.0075 113.78 14.1536 113.888 14.3442C114.002 14.5284 114.082 14.7476 114.126 15.0017C114.177 15.2557 114.203 15.5321 114.203 15.8306V18.8035ZM118.033 18.5557C117.963 18.5875 117.867 18.6288 117.747 18.6796C117.626 18.7304 117.486 18.7749 117.328 18.813C117.169 18.8511 117 18.8702 116.823 18.8702C116.619 18.8702 116.432 18.8352 116.26 18.7654C116.089 18.6891 115.952 18.5748 115.851 18.4223C115.749 18.2635 115.698 18.0666 115.698 17.8316V14.4871H115.022V13.8297H115.698V12.1717H116.537V13.8297H117.651V14.4871H116.537V17.5743C116.549 17.7522 116.61 17.8856 116.718 17.9745C116.826 18.0571 116.953 18.0984 117.099 18.0984C117.264 18.0984 117.416 18.0698 117.556 18.0126C117.696 17.9554 117.788 17.9142 117.833 17.8887L118.033 18.5557Z" fill="#02171A"/>
</g>
<defs>
<filter id="filter0_d_435_7780" x="0.804903" y="0.880737" width="139.159" height="51.2357" filterUnits="userSpaceOnUse" color-interpolation-filters="sRGB">
<feFlood flood-opacity="0" result="BackgroundImageFix"/>
<feColorMatrix in="SourceAlpha" type="matrix" values="0 0 0 0 0 0 0 0 0 0 0 0 0 0 0 0 0 0 127 0" result="hardAlpha"/>
<feOffset dy="10.6951"/>
<feGaussianBlur stdDeviation="5.34755"/>
<feComposite in2="hardAlpha" operator="out"/>
<feColorMatrix type="matrix" values="0 0 0 0 0 0 0 0 0 0 0 0 0 0 0 0 0 0 0.15 0"/>
<feBlend mode="normal" in2="BackgroundImageFix" result="effect1_dropShadow_435_7780"/>
<feBlend mode="normal" in="SourceGraphic" in2="effect1_dropShadow_435_7780" result="shape"/>
</filter>
</defs>
</svg>
