<svg width="140" height="96" viewBox="0 0 140 96" fill="none" xmlns="http://www.w3.org/2000/svg">
<g filter="url(#filter0_d_435_7783)">
<rect x="11.5" y="0.212402" width="117.768" height="74.2103" rx="3.22653" fill="#F8F9F7" shape-rendering="crispEdges"/>
<path d="M23.1996 19.5053V12.7402H25.5435C26.2677 12.7402 26.8712 12.8926 27.3539 13.1975C27.843 13.4961 28.2083 13.9026 28.4497 14.4172C28.6911 14.9253 28.8118 15.4907 28.8118 16.1132C28.8118 16.7993 28.6784 17.3964 28.4116 17.9045C28.1448 18.4127 27.7668 18.8066 27.2777 19.0861C26.7886 19.3656 26.2105 19.5053 25.5435 19.5053H23.1996ZM27.9447 16.1132C27.9447 15.605 27.8494 15.154 27.6588 14.7602C27.4746 14.3663 27.2046 14.0583 26.8489 13.8359C26.4932 13.6136 26.0581 13.5024 25.5435 13.5024H24.0571V18.743H25.5435C26.0644 18.743 26.5027 18.6287 26.8584 18.4C27.2142 18.165 27.4841 17.8506 27.6684 17.4567C27.8526 17.0565 27.9447 16.6087 27.9447 16.1132ZM32.0592 19.6006C31.6844 19.6006 31.3446 19.5339 31.0397 19.4005C30.7348 19.2607 30.4712 19.0734 30.2488 18.8383C30.0265 18.5969 29.855 18.3206 29.7343 18.0094C29.6136 17.6981 29.5533 17.371 29.5533 17.0279C29.5533 16.6786 29.6136 16.3482 29.7343 16.037C29.855 15.7257 30.0265 15.4526 30.2488 15.2175C30.4712 14.9762 30.7348 14.7888 31.0397 14.6554C31.3509 14.5156 31.6908 14.4458 32.0592 14.4458C32.434 14.4458 32.7738 14.5156 33.0788 14.6554C33.3837 14.7888 33.6473 14.9762 33.8696 15.2175C34.0983 15.4526 34.273 15.7257 34.3937 16.037C34.5144 16.3482 34.5747 16.6786 34.5747 17.0279C34.5747 17.371 34.5144 17.6981 34.3937 18.0094C34.273 18.3206 34.1015 18.5969 33.8791 18.8383C33.6568 19.0734 33.39 19.2607 33.0788 19.4005C32.7738 19.5339 32.434 19.6006 32.0592 19.6006ZM30.4108 17.0375C30.4108 17.3805 30.4839 17.6917 30.63 17.9712C30.7824 18.2507 30.9825 18.4731 31.2303 18.6382C31.478 18.797 31.7543 18.8764 32.0592 18.8764C32.3641 18.8764 32.6404 18.7939 32.8882 18.6287C33.1423 18.4635 33.3424 18.2412 33.4885 17.9617C33.6409 17.6759 33.7172 17.3614 33.7172 17.0184C33.7172 16.6754 33.6409 16.3641 33.4885 16.0846C33.3424 15.8051 33.1423 15.5828 32.8882 15.4176C32.6404 15.2525 32.3641 15.1699 32.0592 15.1699C31.7543 15.1699 31.478 15.2557 31.2303 15.4272C30.9825 15.5923 30.7824 15.8147 30.63 16.0942C30.4839 16.3737 30.4108 16.6881 30.4108 17.0375ZM37.7918 19.6006C37.417 19.6006 37.074 19.5339 36.7627 19.4005C36.4578 19.2607 36.191 19.0702 35.9623 18.8288C35.74 18.5874 35.5653 18.3111 35.4383 17.9998C35.3176 17.6886 35.2572 17.3583 35.2572 17.0089C35.2572 16.5388 35.3621 16.11 35.5717 15.7226C35.7813 15.3351 36.0767 15.027 36.4578 14.7983C36.839 14.5633 37.2804 14.4458 37.7823 14.4458C38.2714 14.4458 38.697 14.5569 39.0591 14.7792C39.4275 14.9952 39.7006 15.2874 39.8785 15.6559L39.0591 15.9131C38.932 15.6781 38.7542 15.497 38.5255 15.37C38.2968 15.2366 38.0427 15.1699 37.7632 15.1699C37.4583 15.1699 37.1788 15.2493 36.9247 15.4081C36.677 15.5669 36.4801 15.7861 36.334 16.0656C36.1879 16.3387 36.1148 16.6532 36.1148 17.0089C36.1148 17.3583 36.1879 17.6759 36.334 17.9617C36.4864 18.2412 36.6865 18.4635 36.9342 18.6287C37.1883 18.7939 37.4678 18.8764 37.7727 18.8764C37.9697 18.8764 38.157 18.8415 38.3349 18.7716C38.5191 18.7018 38.6779 18.6096 38.8113 18.4953C38.9511 18.3746 39.0464 18.2444 39.0972 18.1046L39.9166 18.3524C39.815 18.5938 39.6594 18.8097 39.4497 19.0003C39.2465 19.1845 39.0019 19.3306 38.716 19.4386C38.4365 19.5466 38.1285 19.6006 37.7918 19.6006ZM40.8191 17.5139V14.5315H41.6576V17.3519C41.6576 17.8601 41.7465 18.2412 41.9243 18.4953C42.1022 18.7494 42.3658 18.8764 42.7152 18.8764C42.9439 18.8764 43.163 18.8288 43.3727 18.7335C43.5886 18.6319 43.7824 18.489 43.9539 18.3047C44.1254 18.1205 44.2588 17.9014 44.3541 17.6473V14.5315H45.1926V18.5525C45.1926 18.6541 45.2116 18.7303 45.2497 18.7812C45.2942 18.8256 45.3641 18.851 45.4594 18.8574V19.5053C45.3641 19.518 45.2879 19.5244 45.2307 19.5244C45.1799 19.5307 45.1291 19.5339 45.0782 19.5339C44.9194 19.5339 44.7829 19.4863 44.6685 19.391C44.5542 19.2893 44.4938 19.1655 44.4875 19.0194L44.4684 18.4381C44.2524 18.8066 43.9602 19.0924 43.5918 19.2957C43.2297 19.499 42.8327 19.6006 42.4008 19.6006C41.8799 19.6006 41.486 19.4259 41.2192 19.0765C40.9525 18.7208 40.8191 18.1999 40.8191 17.5139ZM54.0881 19.5053H53.2496V16.723C53.2496 16.2021 53.1639 15.8178 52.9924 15.5701C52.8272 15.3224 52.5795 15.1985 52.2491 15.1985C51.9125 15.1985 51.6076 15.3224 51.3344 15.5701C51.0613 15.8115 50.8675 16.1259 50.7532 16.5134V19.5053H49.9147V16.723C49.9147 16.1958 49.8321 15.8115 49.667 15.5701C49.5018 15.3224 49.2541 15.1985 48.9237 15.1985C48.5934 15.1985 48.2885 15.3192 48.009 15.5606C47.7359 15.7956 47.5421 16.11 47.4278 16.5039V19.5053H46.5893V14.5315H47.3516V15.5987C47.5548 15.2303 47.8185 14.9476 48.1424 14.7507C48.4664 14.5474 48.8316 14.4458 49.2382 14.4458C49.6511 14.4458 49.9814 14.5601 50.2291 14.7888C50.4769 15.0111 50.6293 15.3001 50.6865 15.6559C50.9088 15.262 51.1788 14.9635 51.4964 14.7602C51.814 14.5506 52.1761 14.4458 52.5826 14.4458C52.8685 14.4458 53.1067 14.4997 53.2973 14.6077C53.4942 14.7094 53.6498 14.8555 53.7642 15.046C53.8785 15.2303 53.9611 15.4494 54.0119 15.7035C54.0627 15.9576 54.0881 16.2339 54.0881 16.5325V19.5053ZM57.5929 19.6006C57.2181 19.6006 56.8751 19.5339 56.5638 19.4005C56.2589 19.2607 55.9921 19.0734 55.7635 18.8383C55.5411 18.5969 55.3665 18.3206 55.2394 18.0094C55.1187 17.6981 55.0584 17.3678 55.0584 17.0184C55.0584 16.5483 55.1664 16.1196 55.3823 15.7321C55.5983 15.3446 55.8969 15.0333 56.278 14.7983C56.6655 14.5633 57.107 14.4458 57.6024 14.4458C58.1043 14.4458 58.5394 14.5664 58.9078 14.8078C59.2826 15.0429 59.5716 15.3541 59.7749 15.7416C59.9845 16.1227 60.0893 16.5356 60.0893 16.9803C60.0893 17.0438 60.0862 17.1073 60.0798 17.1709C60.0798 17.228 60.0766 17.2725 60.0703 17.3043H55.9445C55.9699 17.6282 56.0588 17.9173 56.2113 18.1713C56.3701 18.4191 56.5734 18.616 56.8211 18.7621C57.0689 18.9018 57.3356 18.9717 57.6215 18.9717C57.9264 18.9717 58.2123 18.8955 58.479 18.743C58.7522 18.5906 58.9396 18.3905 59.0412 18.1428L59.7654 18.3429C59.6574 18.5842 59.4954 18.8002 59.2794 18.9908C59.0698 19.1813 58.8189 19.3306 58.5267 19.4386C58.2408 19.5466 57.9296 19.6006 57.5929 19.6006ZM55.9159 16.723H59.308C59.2826 16.3991 59.1905 16.1132 59.0317 15.8655C58.8729 15.6177 58.6696 15.424 58.4219 15.2842C58.1741 15.1445 57.901 15.0746 57.6024 15.0746C57.3102 15.0746 57.0403 15.1445 56.7925 15.2842C56.5448 15.424 56.3415 15.6177 56.1827 15.8655C56.0303 16.1132 55.9413 16.3991 55.9159 16.723ZM65.3378 19.5053H64.4993V16.723C64.4993 16.1958 64.4167 15.8115 64.2515 15.5701C64.0927 15.3224 63.8482 15.1985 63.5178 15.1985C63.2892 15.1985 63.0605 15.2557 62.8318 15.37C62.6095 15.4843 62.4094 15.64 62.2315 15.8369C62.06 16.0275 61.9361 16.2498 61.8599 16.5039V19.5053H61.0214V14.5315H61.7837V15.5987C61.9171 15.3636 62.0886 15.1604 62.2982 14.9889C62.5078 14.8174 62.746 14.684 63.0128 14.5887C63.2796 14.4934 63.5591 14.4458 63.8513 14.4458C64.1372 14.4458 64.3754 14.4997 64.566 14.6077C64.7629 14.7094 64.9153 14.8555 65.0233 15.046C65.1377 15.2303 65.2171 15.4494 65.2615 15.7035C65.3123 15.9576 65.3378 16.2339 65.3378 16.5325V19.5053ZM69.1678 19.2576C69.0979 19.2893 69.0026 19.3306 68.8819 19.3814C68.7612 19.4323 68.6215 19.4767 68.4627 19.5148C68.3039 19.553 68.1355 19.572 67.9577 19.572C67.7544 19.572 67.567 19.5371 67.3955 19.4672C67.224 19.391 67.0874 19.2766 66.9858 19.1242C66.8842 18.9654 66.8333 18.7685 66.8333 18.5334V15.189H66.1568V14.5315H66.8333V12.8736H67.6718V14.5315H68.7866V15.189H67.6718V18.2762C67.6845 18.454 67.7449 18.5874 67.8529 18.6763C67.9609 18.7589 68.0879 18.8002 68.234 18.8002C68.3992 18.8002 68.5516 18.7716 68.6914 18.7145C68.8311 18.6573 68.9232 18.616 68.9677 18.5906L69.1678 19.2576ZM74.9276 19.2576C74.8577 19.2893 74.7624 19.3306 74.6418 19.3814C74.5211 19.4323 74.3813 19.4767 74.2225 19.5148C74.0637 19.553 73.8954 19.572 73.7175 19.572C73.5142 19.572 73.3268 19.5371 73.1553 19.4672C72.9838 19.391 72.8472 19.2766 72.7456 19.1242C72.644 18.9654 72.5932 18.7685 72.5932 18.5334V15.189H71.9166V14.5315H72.5932V12.8736H73.4317V14.5315H74.5465V15.189H73.4317V18.2762C73.4444 18.454 73.5047 18.5874 73.6127 18.6763C73.7207 18.7589 73.8477 18.8002 73.9938 18.8002C74.159 18.8002 74.3114 18.7716 74.4512 18.7145C74.5909 18.6573 74.683 18.616 74.7275 18.5906L74.9276 19.2576ZM75.9334 20.8583C76.016 20.8647 76.0986 20.871 76.1812 20.8774C76.2638 20.8901 76.3273 20.8965 76.3717 20.8965C76.4734 20.8965 76.5623 20.8615 76.6385 20.7916C76.7148 20.7218 76.7973 20.5852 76.8863 20.3819C76.9816 20.185 77.1023 19.8928 77.2484 19.5053L75.1426 14.5315H76.0287L77.7057 18.6573L79.2207 14.5315H80.0497L77.6295 20.8107C77.5723 20.9568 77.4866 21.0934 77.3722 21.2204C77.2642 21.3538 77.1245 21.4586 76.953 21.5349C76.7815 21.6111 76.575 21.6492 76.3336 21.6492C76.2765 21.6492 76.2161 21.646 76.1526 21.6397C76.0954 21.6333 76.0224 21.6206 75.9334 21.6015V20.8583ZM83.5744 19.6006C83.1679 19.6006 82.8058 19.499 82.4882 19.2957C82.1706 19.0924 81.9197 18.8351 81.7355 18.5239V21.5349H80.897V14.5315H81.6402V15.4653C81.8371 15.1604 82.0944 14.9158 82.412 14.7316C82.7296 14.541 83.0758 14.4458 83.4506 14.4458C83.7936 14.4458 84.108 14.5156 84.3939 14.6554C84.6797 14.7951 84.9275 14.9857 85.1371 15.2271C85.3467 15.4685 85.5087 15.7448 85.623 16.056C85.7437 16.361 85.8041 16.6817 85.8041 17.0184C85.8041 17.4885 85.7088 17.9204 85.5182 18.3143C85.334 18.7081 85.0736 19.0225 84.7369 19.2576C84.4002 19.4863 84.0127 19.6006 83.5744 19.6006ZM83.3172 18.8764C83.5649 18.8764 83.7872 18.8256 83.9842 18.724C84.1874 18.616 84.3589 18.4762 84.4987 18.3047C84.6448 18.1269 84.756 17.9268 84.8322 17.7045C84.9084 17.4821 84.9465 17.2534 84.9465 17.0184C84.9465 16.7707 84.9021 16.5356 84.8131 16.3133C84.7305 16.091 84.6099 15.8941 84.451 15.7226C84.2986 15.551 84.1176 15.4176 83.9079 15.3224C83.7047 15.2207 83.4823 15.1699 83.2409 15.1699C83.0885 15.1699 82.9297 15.1985 82.7645 15.2557C82.6057 15.3128 82.4533 15.3954 82.3072 15.5034C82.1611 15.605 82.0372 15.7226 81.9356 15.8559C81.8339 15.9893 81.7672 16.1323 81.7355 16.2847V17.7045C81.8307 17.9204 81.9578 18.1173 82.1166 18.2952C82.2754 18.4731 82.4596 18.616 82.6692 18.724C82.8789 18.8256 83.0948 18.8764 83.3172 18.8764ZM89.0346 19.6006C88.6599 19.6006 88.3168 19.5339 88.0056 19.4005C87.7007 19.2607 87.4339 19.0734 87.2052 18.8383C86.9829 18.5969 86.8082 18.3206 86.6811 18.0094C86.5604 17.6981 86.5001 17.3678 86.5001 17.0184C86.5001 16.5483 86.6081 16.1196 86.8241 15.7321C87.04 15.3446 87.3386 15.0333 87.7197 14.7983C88.1072 14.5633 88.5487 14.4458 89.0442 14.4458C89.546 14.4458 89.9811 14.5664 90.3495 14.8078C90.7243 15.0429 91.0134 15.3541 91.2166 15.7416C91.4263 16.1227 91.5311 16.5356 91.5311 16.9803C91.5311 17.0438 91.5279 17.1073 91.5215 17.1709C91.5215 17.228 91.5184 17.2725 91.512 17.3043H87.3862C87.4116 17.6282 87.5006 17.9173 87.653 18.1713C87.8118 18.4191 88.0151 18.616 88.2628 18.7621C88.5106 18.9018 88.7774 18.9717 89.0632 18.9717C89.3681 18.9717 89.654 18.8955 89.9208 18.743C90.1939 18.5906 90.3813 18.3905 90.4829 18.1428L91.2071 18.3429C91.0991 18.5842 90.9371 18.8002 90.7212 18.9908C90.5115 19.1813 90.2606 19.3306 89.9684 19.4386C89.6826 19.5466 89.3713 19.6006 89.0346 19.6006ZM87.3576 16.723H90.7497C90.7243 16.3991 90.6322 16.1132 90.4734 15.8655C90.3146 15.6177 90.1113 15.424 89.8636 15.2842C89.6159 15.1445 89.3427 15.0746 89.0442 15.0746C88.752 15.0746 88.482 15.1445 88.2343 15.2842C87.9865 15.424 87.7832 15.6177 87.6244 15.8655C87.472 16.1132 87.3831 16.3991 87.3576 16.723Z" fill="#02171A"/>
<rect opacity="0.05" x="18.7598" y="30.8645" width="25.8123" height="25.8123" rx="4.69314" fill="#02171A"/>
<path d="M29.3185 49.2811C29.7291 49.2811 30.0792 49.4317 30.3686 49.7328C30.658 50.034 30.8027 50.3977 30.8027 50.824C30.8027 51.2542 30.658 51.6199 30.3686 51.921C30.0831 52.2182 29.733 52.3669 29.3185 52.3669C28.8335 52.3669 28.4639 52.1733 28.2097 51.7861V53.4639H27.6994V49.3574H28.2097V49.8619C28.4639 49.4747 28.8335 49.2811 29.3185 49.2811ZM29.254 51.8741C29.5473 51.8741 29.7937 51.7743 29.9931 51.5749C30.1926 51.3676 30.2923 51.1173 30.2923 50.824C30.2923 50.5267 30.1926 50.2784 29.9931 50.0789C29.7937 49.8756 29.5473 49.7739 29.254 49.7739C28.9567 49.7739 28.7084 49.8756 28.5089 50.0789C28.3095 50.2784 28.2097 50.5267 28.2097 50.824C28.2097 51.1173 28.3095 51.3676 28.5089 51.5749C28.7084 51.7743 28.9567 51.8741 29.254 51.8741ZM33.8404 49.8619V48.1841H34.3508V52.2906H33.8404V51.7861C33.5901 52.1733 33.2205 52.3669 32.7316 52.3669C32.3171 52.3669 31.9671 52.2182 31.6816 51.921C31.3921 51.6199 31.2474 51.2542 31.2474 50.824C31.2474 50.3977 31.3921 50.034 31.6816 49.7328C31.971 49.4317 32.321 49.2811 32.7316 49.2811C33.2205 49.2811 33.5901 49.4747 33.8404 49.8619ZM32.7962 51.8741C33.0934 51.8741 33.3418 51.7743 33.5412 51.5749C33.7407 51.3676 33.8404 51.1173 33.8404 50.824C33.8404 50.5267 33.7407 50.2784 33.5412 50.0789C33.3418 49.8756 33.0934 49.7739 32.7962 49.7739C32.5029 49.7739 32.2565 49.8756 32.057 50.0789C31.8576 50.2784 31.7578 50.5267 31.7578 50.824C31.7578 51.1173 31.8576 51.3676 32.057 51.5749C32.2565 51.7743 32.5029 51.8741 32.7962 51.8741ZM36.6317 48.1078V48.6006C36.1155 48.5576 35.8574 48.7805 35.8574 49.2694V49.3574H36.6317V49.8502H35.8574V52.2906H35.347V49.8502H34.8777V49.3574H35.347V49.2694C35.347 48.8705 35.4584 48.5713 35.6814 48.3718C35.9043 48.1684 36.2211 48.0805 36.6317 48.1078Z" fill="#02171A"/>
<path d="M36.5537 39.2197V41.664C36.5537 44.1084 35.576 45.0861 33.1317 45.0861H30.1984C27.7541 45.0861 26.7764 44.1084 26.7764 41.664V38.7308C26.7764 36.2865 27.7541 35.3087 30.1984 35.3087H32.6428" stroke="#02171A" stroke-width="0.555177" stroke-linecap="round" stroke-linejoin="round"/>
<path d="M36.5545 39.2197H34.599C33.1324 39.2197 32.6436 38.7308 32.6436 37.2642V35.3087L36.5545 39.2197Z" stroke="#02171A" stroke-width="0.555177" stroke-linecap="round" stroke-linejoin="round"/>
<rect x="57.4775" y="30.8645" width="25.8123" height="25.8123" rx="4.69314" fill="#02171A"/>
<path d="M68.7533 49.3574V49.8502H67.973V51.44C67.973 51.5847 68.0004 51.6883 68.0551 51.7509C68.1138 51.8095 68.2018 51.8408 68.3191 51.8447C68.4365 51.8447 68.5812 51.8408 68.7533 51.833V52.2906C68.3035 52.3493 67.975 52.3121 67.7677 52.1791C67.5643 52.0462 67.4626 51.7998 67.4626 51.44V49.8502H66.8819V49.3574H67.4626V48.6886L67.973 48.5361V49.3574H68.7533ZM70.8002 50.7771L71.9207 52.2906H71.3223L70.501 51.1818L69.6739 52.2906H69.0755L70.2018 50.7829L69.14 49.3574H69.7443L70.501 50.3781L71.2578 49.3574H71.8562L70.8002 50.7771ZM73.9895 49.3574V49.8502H73.2093V51.44C73.2093 51.5847 73.2366 51.6883 73.2914 51.7509C73.3501 51.8095 73.4381 51.8408 73.5554 51.8447C73.6727 51.8447 73.8174 51.8408 73.9895 51.833V52.2906C73.5397 52.3493 73.2112 52.3121 73.0039 52.1791C72.8006 52.0462 72.6989 51.7998 72.6989 51.44V49.8502H72.1181V49.3574H72.6989V48.6886L73.2093 48.5361V49.3574H73.9895Z" fill="white"/>
<path d="M75.2715 39.2198V41.6641C75.2715 44.1085 74.2938 45.0862 71.8494 45.0862H68.9162C66.4719 45.0862 65.4941 44.1085 65.4941 41.6641V38.7309C65.4941 36.2866 66.4719 35.3088 68.9162 35.3088H71.3606" stroke="white" stroke-width="0.555177" stroke-linecap="round" stroke-linejoin="round"/>
<path d="M75.2723 39.2198H73.3168C71.8502 39.2198 71.3613 38.7309 71.3613 37.2643V35.3088L75.2723 39.2198Z" stroke="white" stroke-width="0.555177" stroke-linecap="round" stroke-linejoin="round"/>
<rect x="96.1963" y="30.8645" width="25.8123" height="25.8123" rx="4.69314" fill="#ECF0EE"/>
<path d="M105.836 50.7771L106.956 52.2906H106.358L105.536 51.1818L104.709 52.2906H104.111L105.237 50.7829L104.175 49.3574H104.78L105.536 50.3781L106.293 49.3574H106.891L105.836 50.7771ZM107.94 52.2906H107.429V48.0081H107.94V52.2906ZM109.152 50.1493C109.152 50.3371 109.346 50.4837 109.733 50.5893C109.878 50.6206 109.999 50.6539 110.097 50.6891C110.199 50.7203 110.308 50.7692 110.425 50.8357C110.547 50.9022 110.639 50.9902 110.701 51.0997C110.764 51.2092 110.795 51.3383 110.795 51.4869C110.795 51.7528 110.691 51.966 110.484 52.1263C110.277 52.2867 110.015 52.3669 109.698 52.3669C109.416 52.3669 109.172 52.3062 108.965 52.185C108.761 52.0598 108.617 51.8917 108.531 51.6805L108.971 51.4282C109.017 51.569 109.105 51.6805 109.235 51.7626C109.364 51.8447 109.518 51.8858 109.698 51.8858C109.874 51.8858 110.015 51.8526 110.12 51.7861C110.226 51.7196 110.279 51.6199 110.279 51.4869C110.279 51.2874 110.085 51.1427 109.698 51.0528C109.569 51.0176 109.471 50.9902 109.405 50.9706C109.338 50.9511 109.246 50.9159 109.129 50.865C109.016 50.8142 108.929 50.7614 108.871 50.7067C108.812 50.648 108.757 50.5717 108.707 50.4779C108.66 50.3801 108.636 50.2725 108.636 50.1552C108.636 49.901 108.734 49.6918 108.929 49.5275C109.129 49.3632 109.377 49.2811 109.674 49.2811C109.913 49.2811 110.124 49.3359 110.308 49.4454C110.496 49.551 110.637 49.6996 110.73 49.8912L110.302 50.1317C110.197 49.8814 109.987 49.7563 109.674 49.7563C109.526 49.7563 109.401 49.7915 109.299 49.8619C109.201 49.9323 109.152 50.0281 109.152 50.1493ZM112.71 50.7771L113.831 52.2906H113.232L112.411 51.1818L111.584 52.2906H110.986L112.112 50.7829L111.05 49.3574H111.654L112.411 50.3781L113.168 49.3574H113.766L112.71 50.7771Z" fill="#02171A"/>
<path d="M113.99 39.2198V41.6641C113.99 44.1085 113.013 45.0862 110.568 45.0862H107.635C105.191 45.0862 104.213 44.1085 104.213 41.6641V38.7309C104.213 36.2866 105.191 35.3088 107.635 35.3088H110.079" stroke="#02171A" stroke-width="0.555177" stroke-linecap="round" stroke-linejoin="round"/>
<path d="M113.991 39.2198H112.036C110.569 39.2198 110.08 38.7309 110.08 37.2643V35.3088L113.991 39.2198Z" stroke="#02171A" stroke-width="0.555177" stroke-linecap="round" stroke-linejoin="round"/>
</g>
<defs>
<filter id="filter0_d_435_7783" x="0.804903" y="0.212402" width="139.159" height="95.6005" filterUnits="userSpaceOnUse" color-interpolation-filters="sRGB">
<feFlood flood-opacity="0" result="BackgroundImageFix"/>
<feColorMatrix in="SourceAlpha" type="matrix" values="0 0 0 0 0 0 0 0 0 0 0 0 0 0 0 0 0 0 127 0" result="hardAlpha"/>
<feOffset dy="10.6951"/>
<feGaussianBlur stdDeviation="5.34755"/>
<feComposite in2="hardAlpha" operator="out"/>
<feColorMatrix type="matrix" values="0 0 0 0 0 0 0 0 0 0 0 0 0 0 0 0 0 0 0.15 0"/>
<feBlend mode="normal" in2="BackgroundImageFix" result="effect1_dropShadow_435_7783"/>
<feBlend mode="normal" in="SourceGraphic" in2="effect1_dropShadow_435_7783" result="shape"/>
</filter>
</defs>
</svg>
