<svg width="140" height="125" viewBox="0 0 140 125" fill="none" xmlns="http://www.w3.org/2000/svg">
<g filter="url(#filter0_d_435_7801)">
<rect x="11.5" y="0.715576" width="117.768" height="102.597" rx="3.22653" fill="#F8F9F7" shape-rendering="crispEdges"/>
<path d="M22.7613 16.5782C22.7613 16.1653 22.8311 15.762 22.9709 15.3681C23.117 14.9679 23.3266 14.6058 23.5998 14.2819C23.8792 13.9516 24.2191 13.6911 24.6193 13.5006C25.0195 13.3036 25.4737 13.2052 25.9818 13.2052C26.5853 13.2052 27.103 13.3449 27.535 13.6244C27.9669 13.8976 28.2877 14.2501 28.4973 14.6821L27.8208 15.1204C27.6874 14.8345 27.5159 14.609 27.3063 14.4439C27.103 14.2724 26.8807 14.1517 26.6393 14.0818C26.4043 14.0119 26.1724 13.977 25.9437 13.977C25.5689 13.977 25.2355 14.0532 24.9432 14.2057C24.6574 14.3581 24.416 14.5614 24.2191 14.8155C24.0222 15.0696 23.8729 15.3554 23.7713 15.673C23.676 15.9843 23.6283 16.2987 23.6283 16.6163C23.6283 16.9657 23.6855 17.3024 23.7998 17.6263C23.9205 17.9503 24.0857 18.2361 24.2953 18.4839C24.5049 18.7316 24.7527 18.9285 25.0385 19.0746C25.3244 19.2207 25.6356 19.2938 25.9723 19.2938C26.2073 19.2938 26.4487 19.2525 26.6965 19.1699C26.9442 19.0873 27.1761 18.9603 27.392 18.7888C27.608 18.6109 27.7795 18.3822 27.9066 18.1028L28.6212 18.4934C28.4814 18.8301 28.2655 19.1159 27.9733 19.351C27.6811 19.586 27.3539 19.7639 26.9918 19.8846C26.6361 20.0052 26.2836 20.0656 25.9342 20.0656C25.4705 20.0656 25.0449 19.9671 24.6574 19.7702C24.2699 19.5669 23.9332 19.3001 23.6474 18.9698C23.3679 18.6332 23.1487 18.2584 22.9899 17.8455C22.8375 17.4262 22.7613 17.0038 22.7613 16.5782ZM33.8774 20.0084H33.0389V17.2261C33.0389 16.718 32.9468 16.3368 32.7626 16.0827C32.5847 15.8286 32.3275 15.7016 31.9908 15.7016C31.7748 15.7016 31.5557 15.7588 31.3334 15.8731C31.1174 15.9875 30.9268 16.1431 30.7617 16.34C30.5965 16.5306 30.4758 16.7529 30.3996 17.007V20.0084H29.5611V13.0527H30.3996V16.1018C30.5965 15.7461 30.8633 15.4666 31.2 15.2633C31.543 15.0537 31.9114 14.9489 32.3052 14.9489C32.6038 14.9489 32.8515 15.0029 33.0485 15.1108C33.2517 15.2125 33.4137 15.3586 33.5344 15.5492C33.6551 15.7397 33.7409 15.962 33.7917 16.2161C33.8488 16.4639 33.8774 16.737 33.8774 17.0356V20.0084ZM37.3538 20.1037C36.979 20.1037 36.6392 20.037 36.3343 19.9036C36.0293 19.7639 35.7657 19.5765 35.5434 19.3414C35.3211 19.1001 35.1496 18.8237 35.0289 18.5125C34.9082 18.2012 34.8478 17.8741 34.8478 17.531C34.8478 17.1817 34.9082 16.8514 35.0289 16.5401C35.1496 16.2288 35.3211 15.9557 35.5434 15.7207C35.7657 15.4793 36.0293 15.2919 36.3343 15.1585C36.6455 15.0187 36.9854 14.9489 37.3538 14.9489C37.7286 14.9489 38.0684 15.0187 38.3733 15.1585C38.6782 15.2919 38.9418 15.4793 39.1642 15.7207C39.3929 15.9557 39.5675 16.2288 39.6882 16.5401C39.8089 16.8514 39.8693 17.1817 39.8693 17.531C39.8693 17.8741 39.8089 18.2012 39.6882 18.5125C39.5675 18.8237 39.396 19.1001 39.1737 19.3414C38.9514 19.5765 38.6846 19.7639 38.3733 19.9036C38.0684 20.037 37.7286 20.1037 37.3538 20.1037ZM35.7054 17.5406C35.7054 17.8836 35.7784 18.1949 35.9245 18.4744C36.077 18.7539 36.2771 18.9762 36.5248 19.1413C36.7726 19.3001 37.0489 19.3796 37.3538 19.3796C37.6587 19.3796 37.935 19.297 38.1828 19.1318C38.4368 18.9667 38.6369 18.7443 38.783 18.4648C38.9355 18.179 39.0117 17.8645 39.0117 17.5215C39.0117 17.1785 38.9355 16.8672 38.783 16.5877C38.6369 16.3082 38.4368 16.0859 38.1828 15.9208C37.935 15.7556 37.6587 15.673 37.3538 15.673C37.0489 15.673 36.7726 15.7588 36.5248 15.9303C36.2771 16.0954 36.077 16.3178 35.9245 16.5973C35.7784 16.8768 35.7054 17.1912 35.7054 17.5406ZM43.0578 20.1037C42.683 20.1037 42.3431 20.037 42.0382 19.9036C41.7333 19.7639 41.4697 19.5765 41.2474 19.3414C41.0251 19.1001 40.8535 18.8237 40.7329 18.5125C40.6122 18.2012 40.5518 17.8741 40.5518 17.531C40.5518 17.1817 40.6122 16.8514 40.7329 16.5401C40.8535 16.2288 41.0251 15.9557 41.2474 15.7207C41.4697 15.4793 41.7333 15.2919 42.0382 15.1585C42.3495 15.0187 42.6893 14.9489 43.0578 14.9489C43.4326 14.9489 43.7724 15.0187 44.0773 15.1585C44.3822 15.2919 44.6458 15.4793 44.8682 15.7207C45.0968 15.9557 45.2715 16.2288 45.3922 16.5401C45.5129 16.8514 45.5733 17.1817 45.5733 17.531C45.5733 17.8741 45.5129 18.2012 45.3922 18.5125C45.2715 18.8237 45.1 19.1001 44.8777 19.3414C44.6554 19.5765 44.3886 19.7639 44.0773 19.9036C43.7724 20.037 43.4326 20.1037 43.0578 20.1037ZM41.4094 17.5406C41.4094 17.8836 41.4824 18.1949 41.6285 18.4744C41.781 18.7539 41.9811 18.9762 42.2288 19.1413C42.4765 19.3001 42.7529 19.3796 43.0578 19.3796C43.3627 19.3796 43.639 19.297 43.8867 19.1318C44.1408 18.9667 44.3409 18.7443 44.487 18.4648C44.6395 18.179 44.7157 17.8645 44.7157 17.5215C44.7157 17.1785 44.6395 16.8672 44.487 16.5877C44.3409 16.3082 44.1408 16.0859 43.8867 15.9208C43.639 15.7556 43.3627 15.673 43.0578 15.673C42.7529 15.673 42.4765 15.7588 42.2288 15.9303C41.9811 16.0954 41.781 16.3178 41.6285 16.5973C41.4824 16.8768 41.4094 17.1912 41.4094 17.5406ZM48.2949 20.1037C47.882 20.1037 47.4945 20.037 47.1324 19.9036C46.7703 19.7639 46.4591 19.5574 46.1986 19.2843L46.5226 18.6935C46.8085 18.9603 47.0943 19.1509 47.3802 19.2652C47.666 19.3796 47.9582 19.4367 48.2568 19.4367C48.5998 19.4367 48.8793 19.3732 49.0953 19.2462C49.3112 19.1128 49.4192 18.919 49.4192 18.6649C49.4192 18.4807 49.3621 18.3441 49.2477 18.2552C49.1397 18.1663 48.9841 18.0932 48.7808 18.0361C48.5775 17.9725 48.3362 17.9027 48.0567 17.8264C47.7136 17.7248 47.4246 17.6168 47.1896 17.5025C46.9546 17.3881 46.7767 17.2452 46.656 17.0737C46.5353 16.9022 46.475 16.6862 46.475 16.4258C46.475 16.1081 46.5575 15.8414 46.7227 15.6254C46.8879 15.403 47.1134 15.2347 47.3992 15.1204C47.6914 15.006 48.0217 14.9489 48.3902 14.9489C48.7586 14.9489 49.0921 15.006 49.3906 15.1204C49.6892 15.2347 49.9465 15.403 50.1624 15.6254L49.7813 16.2066C49.5844 16.0033 49.3684 15.8541 49.1334 15.7588C48.8983 15.6571 48.6347 15.6063 48.3425 15.6063C48.171 15.6063 48.0027 15.6286 47.8375 15.673C47.6724 15.7111 47.5358 15.7842 47.4278 15.8922C47.3198 15.9938 47.2658 16.1399 47.2658 16.3305C47.2658 16.4893 47.3071 16.6163 47.3897 16.7116C47.4786 16.8005 47.6057 16.8768 47.7708 16.9403C47.9423 17.0038 48.1488 17.0737 48.3902 17.1499C48.7649 17.2579 49.0889 17.3659 49.3621 17.4739C49.6415 17.5819 49.8575 17.7216 50.01 17.8931C50.1624 18.0646 50.2387 18.3028 50.2387 18.6078C50.2387 19.0778 50.0608 19.4462 49.7051 19.713C49.3493 19.9735 48.8793 20.1037 48.2949 20.1037ZM53.4429 20.1037C53.0681 20.1037 52.7251 20.037 52.4138 19.9036C52.1089 19.7639 51.8421 19.5765 51.6134 19.3414C51.3911 19.1001 51.2164 18.8237 51.0894 18.5125C50.9687 18.2012 50.9083 17.8709 50.9083 17.5215C50.9083 17.0515 51.0163 16.6227 51.2323 16.2352C51.4483 15.8477 51.7468 15.5364 52.128 15.3014C52.5154 15.0664 52.9569 14.9489 53.4524 14.9489C53.9542 14.9489 54.3894 15.0696 54.7578 15.3109C55.1326 15.546 55.4216 15.8572 55.6249 16.2447C55.8345 16.6259 55.9393 17.0388 55.9393 17.4834C55.9393 17.5469 55.9361 17.6105 55.9298 17.674C55.9298 17.7311 55.9266 17.7756 55.9202 17.8074H51.7945C51.8199 18.1313 51.9088 18.4204 52.0613 18.6745C52.2201 18.9222 52.4233 19.1191 52.6711 19.2652C52.9188 19.405 53.1856 19.4748 53.4715 19.4748C53.7764 19.4748 54.0622 19.3986 54.329 19.2462C54.6021 19.0937 54.7895 18.8936 54.8912 18.6459L55.6153 18.846C55.5073 19.0873 55.3454 19.3033 55.1294 19.4939C54.9198 19.6845 54.6688 19.8337 54.3766 19.9417C54.0908 20.0497 53.7795 20.1037 53.4429 20.1037ZM51.7659 17.2261H55.158C55.1326 16.9022 55.0405 16.6163 54.8816 16.3686C54.7228 16.1209 54.5196 15.9271 54.2718 15.7874C54.0241 15.6476 53.7509 15.5777 53.4524 15.5777C53.1602 15.5777 52.8902 15.6476 52.6425 15.7874C52.3947 15.9271 52.1915 16.1209 52.0327 16.3686C51.8802 16.6163 51.7913 16.9022 51.7659 17.2261ZM58.9574 17.531C58.9574 17.061 59.0527 16.6322 59.2433 16.2447C59.4402 15.8509 59.707 15.5364 60.0436 15.3014C60.3867 15.0664 60.7773 14.9489 61.2156 14.9489C61.6158 14.9489 61.9747 15.0537 62.2923 15.2633C62.6099 15.4729 62.8577 15.727 63.0355 16.0256V13.0527H63.874V19.0556C63.874 19.1572 63.8931 19.2334 63.9312 19.2843C63.9757 19.3287 64.0455 19.3541 64.1408 19.3605V20.0084C63.982 20.0338 63.8582 20.0465 63.7692 20.0465C63.6041 20.0465 63.458 19.9894 63.3309 19.875C63.2102 19.7607 63.1499 19.6336 63.1499 19.4939V19.0746C62.953 19.3923 62.6893 19.6432 62.359 19.8274C62.0287 20.0116 61.6857 20.1037 61.33 20.1037C60.9869 20.1037 60.6693 20.037 60.3771 19.9036C60.0913 19.7639 59.8404 19.5733 59.6244 19.3319C59.4148 19.0905 59.2496 18.8174 59.1289 18.5125C59.0146 18.2012 58.9574 17.8741 58.9574 17.531ZM63.0355 18.2647V16.8355C62.9593 16.6195 62.8354 16.4258 62.6639 16.2542C62.4924 16.0764 62.2987 15.9366 62.0827 15.835C61.8731 15.727 61.6635 15.673 61.4538 15.673C61.2061 15.673 60.9806 15.727 60.7773 15.835C60.5804 15.9366 60.4089 16.0764 60.2628 16.2542C60.123 16.4258 60.0151 16.6227 59.9388 16.845C59.8626 17.0673 59.8245 17.2992 59.8245 17.5406C59.8245 17.7883 59.8658 18.0233 59.9484 18.2457C60.0373 18.468 60.158 18.6649 60.3104 18.8364C60.4692 19.0079 60.6503 19.1413 60.8535 19.2366C61.0632 19.3319 61.2887 19.3796 61.5301 19.3796C61.6825 19.3796 61.8381 19.351 61.997 19.2938C62.1621 19.2366 62.3177 19.1572 62.4638 19.0556C62.6099 18.954 62.7338 18.8364 62.8354 18.703C62.9371 18.5633 63.0038 18.4172 63.0355 18.2647ZM67.4463 20.1037C67.0715 20.1037 66.7317 20.037 66.4267 19.9036C66.1218 19.7639 65.8582 19.5765 65.6359 19.3414C65.4136 19.1001 65.242 18.8237 65.1214 18.5125C65.0007 18.2012 64.9403 17.8741 64.9403 17.531C64.9403 17.1817 65.0007 16.8514 65.1214 16.5401C65.242 16.2288 65.4136 15.9557 65.6359 15.7207C65.8582 15.4793 66.1218 15.2919 66.4267 15.1585C66.738 15.0187 67.0778 14.9489 67.4463 14.9489C67.8211 14.9489 68.1609 15.0187 68.4658 15.1585C68.7707 15.2919 69.0343 15.4793 69.2567 15.7207C69.4853 15.9557 69.66 16.2288 69.7807 16.5401C69.9014 16.8514 69.9618 17.1817 69.9618 17.531C69.9618 17.8741 69.9014 18.2012 69.7807 18.5125C69.66 18.8237 69.4885 19.1001 69.2662 19.3414C69.0439 19.5765 68.7771 19.7639 68.4658 19.9036C68.1609 20.037 67.8211 20.1037 67.4463 20.1037ZM65.7979 17.5406C65.7979 17.8836 65.8709 18.1949 66.017 18.4744C66.1695 18.7539 66.3696 18.9762 66.6173 19.1413C66.865 19.3001 67.1414 19.3796 67.4463 19.3796C67.7512 19.3796 68.0275 19.297 68.2752 19.1318C68.5293 18.9667 68.7294 18.7443 68.8755 18.4648C69.028 18.179 69.1042 17.8645 69.1042 17.5215C69.1042 17.1785 69.028 16.8672 68.8755 16.5877C68.7294 16.3082 68.5293 16.0859 68.2752 15.9208C68.0275 15.7556 67.7512 15.673 67.4463 15.673C67.1414 15.673 66.865 15.7588 66.6173 15.9303C66.3696 16.0954 66.1695 16.3178 66.017 16.5973C65.8709 16.8768 65.7979 17.1912 65.7979 17.5406ZM73.1788 20.1037C72.8041 20.1037 72.461 20.037 72.1498 19.9036C71.8449 19.7639 71.5781 19.5733 71.3494 19.3319C71.1271 19.0905 70.9524 18.8142 70.8253 18.5029C70.7047 18.1917 70.6443 17.8614 70.6443 17.512C70.6443 17.0419 70.7491 16.6132 70.9587 16.2257C71.1684 15.8382 71.4637 15.5301 71.8449 15.3014C72.226 15.0664 72.6675 14.9489 73.1693 14.9489C73.6584 14.9489 74.084 15.06 74.4461 15.2824C74.8146 15.4983 75.0877 15.7905 75.2656 16.159L74.4461 16.4162C74.3191 16.1812 74.1412 16.0002 73.9125 15.8731C73.6839 15.7397 73.4298 15.673 73.1503 15.673C72.8454 15.673 72.5659 15.7524 72.3118 15.9112C72.064 16.07 71.8671 16.2892 71.721 16.5687C71.5749 16.8418 71.5019 17.1563 71.5019 17.512C71.5019 17.8614 71.5749 18.179 71.721 18.4648C71.8735 18.7443 72.0736 18.9667 72.3213 19.1318C72.5754 19.297 72.8549 19.3796 73.1598 19.3796C73.3567 19.3796 73.5441 19.3446 73.722 19.2747C73.9062 19.2049 74.065 19.1128 74.1984 18.9984C74.3381 18.8777 74.4334 18.7475 74.4842 18.6078L75.3037 18.8555C75.202 19.0969 75.0464 19.3129 74.8368 19.5034C74.6335 19.6876 74.389 19.8337 74.1031 19.9417C73.8236 20.0497 73.5155 20.1037 73.1788 20.1037ZM76.2061 18.017V15.0346H77.0446V17.855C77.0446 18.3632 77.1335 18.7443 77.3114 18.9984C77.4893 19.2525 77.7529 19.3796 78.1023 19.3796C78.3309 19.3796 78.5501 19.3319 78.7597 19.2366C78.9757 19.135 79.1694 18.9921 79.3409 18.8078C79.5125 18.6236 79.6459 18.4045 79.7411 18.1504V15.0346H80.5796V19.0556C80.5796 19.1572 80.5987 19.2334 80.6368 19.2843C80.6813 19.3287 80.7511 19.3541 80.8464 19.3605V20.0084C80.7511 20.0211 80.6749 20.0275 80.6177 20.0275C80.5669 20.0338 80.5161 20.037 80.4653 20.037C80.3065 20.037 80.1699 19.9894 80.0556 19.8941C79.9412 19.7924 79.8809 19.6686 79.8745 19.5225L79.8555 18.9412C79.6395 19.3097 79.3473 19.5955 78.9789 19.7988C78.6168 20.0021 78.2198 20.1037 77.7878 20.1037C77.2669 20.1037 76.8731 19.929 76.6063 19.5796C76.3395 19.2239 76.2061 18.703 76.2061 18.017ZM89.4752 20.0084H88.6367V17.2261C88.6367 16.7053 88.5509 16.3209 88.3794 16.0732C88.2143 15.8255 87.9665 15.7016 87.6362 15.7016C87.2995 15.7016 86.9946 15.8255 86.7215 16.0732C86.4483 16.3146 86.2546 16.629 86.1402 17.0165V20.0084H85.3018V17.2261C85.3018 16.6989 85.2192 16.3146 85.054 16.0732C84.8889 15.8255 84.6411 15.7016 84.3108 15.7016C83.9805 15.7016 83.6756 15.8223 83.3961 16.0637C83.1229 16.2987 82.9292 16.6132 82.8149 17.007V20.0084H81.9764V15.0346H82.7386V16.1018C82.9419 15.7334 83.2055 15.4507 83.5295 15.2538C83.8534 15.0505 84.2187 14.9489 84.6252 14.9489C85.0381 14.9489 85.3685 15.0632 85.6162 15.2919C85.8639 15.5142 86.0164 15.8032 86.0736 16.159C86.2959 15.7651 86.5658 15.4666 86.8835 15.2633C87.2011 15.0537 87.5632 14.9489 87.9697 14.9489C88.2555 14.9489 88.4938 15.0029 88.6843 15.1108C88.8812 15.2125 89.0369 15.3586 89.1512 15.5492C89.2656 15.7334 89.3481 15.9525 89.3989 16.2066C89.4498 16.4607 89.4752 16.737 89.4752 17.0356V20.0084ZM92.98 20.1037C92.6052 20.1037 92.2622 20.037 91.9509 19.9036C91.646 19.7639 91.3792 19.5765 91.1505 19.3414C90.9282 19.1001 90.7535 18.8237 90.6265 18.5125C90.5058 18.2012 90.4454 17.8709 90.4454 17.5215C90.4454 17.0515 90.5534 16.6227 90.7694 16.2352C90.9854 15.8477 91.2839 15.5364 91.6651 15.3014C92.0525 15.0664 92.494 14.9489 92.9895 14.9489C93.4913 14.9489 93.9265 15.0696 94.2949 15.3109C94.6697 15.546 94.9587 15.8572 95.162 16.2447C95.3716 16.6259 95.4764 17.0388 95.4764 17.4834C95.4764 17.5469 95.4732 17.6105 95.4669 17.674C95.4669 17.7311 95.4637 17.7756 95.4573 17.8074H91.3316C91.357 18.1313 91.4459 18.4204 91.5984 18.6745C91.7572 18.9222 91.9604 19.1191 92.2082 19.2652C92.4559 19.405 92.7227 19.4748 93.0086 19.4748C93.3135 19.4748 93.5993 19.3986 93.8661 19.2462C94.1393 19.0937 94.3266 18.8936 94.4283 18.6459L95.1524 18.846C95.0445 19.0873 94.8825 19.3033 94.6665 19.4939C94.4569 19.6845 94.206 19.8337 93.9138 19.9417C93.6279 20.0497 93.3166 20.1037 92.98 20.1037ZM91.303 17.2261H94.6951C94.6697 16.9022 94.5776 16.6163 94.4188 16.3686C94.26 16.1209 94.0567 15.9271 93.8089 15.7874C93.5612 15.6476 93.2881 15.5777 92.9895 15.5777C92.6973 15.5777 92.4273 15.6476 92.1796 15.7874C91.9319 15.9271 91.7286 16.1209 91.5698 16.3686C91.4173 16.6163 91.3284 16.9022 91.303 17.2261ZM100.725 20.0084H99.8863V17.2261C99.8863 16.6989 99.8037 16.3146 99.6386 16.0732C99.4798 15.8255 99.2352 15.7016 98.9049 15.7016C98.6762 15.7016 98.4475 15.7588 98.2189 15.8731C97.9965 15.9875 97.7964 16.1431 97.6186 16.34C97.4471 16.5306 97.3232 16.7529 97.247 17.007V20.0084H96.4085V15.0346H97.1707V16.1018C97.3041 15.8668 97.4756 15.6635 97.6853 15.492C97.8949 15.3205 98.1331 15.1871 98.3999 15.0918C98.6667 14.9965 98.9462 14.9489 99.2384 14.9489C99.5242 14.9489 99.7625 15.0029 99.953 15.1108C100.15 15.2125 100.302 15.3586 100.41 15.5492C100.525 15.7334 100.604 15.9525 100.649 16.2066C100.699 16.4607 100.725 16.737 100.725 17.0356V20.0084ZM104.555 19.7607C104.485 19.7924 104.39 19.8337 104.269 19.8846C104.148 19.9354 104.009 19.9798 103.85 20.018C103.691 20.0561 103.523 20.0751 103.345 20.0751C103.141 20.0751 102.954 20.0402 102.783 19.9703C102.611 19.8941 102.474 19.7797 102.373 19.6273C102.271 19.4685 102.22 19.2716 102.22 19.0365V15.6921H101.544V15.0346H102.22V13.3767H103.059V15.0346H104.174V15.6921H103.059V18.7793C103.072 18.9571 103.132 19.0905 103.24 19.1795C103.348 19.262 103.475 19.3033 103.621 19.3033C103.786 19.3033 103.939 19.2747 104.078 19.2176C104.218 19.1604 104.31 19.1191 104.355 19.0937L104.555 19.7607Z" fill="#02171A"/>
<path opacity="0.3" d="M22.9995 35.8547V35.0924H25.8103V35.8547H22.9995ZM27.0285 35.8547V35.0924H29.8394V35.8547H27.0285ZM31.0576 35.8547V35.0924H33.8685V35.8547H31.0576ZM35.0867 35.8547V35.0924H37.8976V35.8547H35.0867ZM39.1158 35.8547V35.0924H41.9267V35.8547H39.1158ZM43.1449 35.8547V35.0924H45.9557V35.8547H43.1449ZM47.174 35.8547V35.0924H49.9848V35.8547H47.174ZM51.203 35.8547V35.0924H54.0139V35.8547H51.203ZM55.2321 35.8547V35.0924H58.043V35.8547H55.2321ZM59.2612 35.8547V35.0924H62.0721V35.8547H59.2612ZM63.2903 35.8547V35.0924H66.1011V35.8547H63.2903ZM67.3194 35.8547V35.0924H70.1302V35.8547H67.3194ZM71.3484 35.8547V35.0924H74.1593V35.8547H71.3484ZM75.3775 35.8547V35.0924H78.1884V35.8547H75.3775ZM79.4066 35.8547V35.0924H82.2175V35.8547H79.4066ZM83.4357 35.8547V35.0924H86.2465V35.8547H83.4357ZM87.4648 35.8547V35.0924H90.2756V35.8547H87.4648Z" fill="#02171A"/>
<path opacity="0.3" d="M22.9995 49.0812V48.319H25.8103V49.0812H22.9995ZM27.0285 49.0812V48.319H29.8394V49.0812H27.0285ZM31.0576 49.0812V48.319H33.8685V49.0812H31.0576ZM35.0867 49.0812V48.319H37.8976V49.0812H35.0867ZM39.1158 49.0812V48.319H41.9267V49.0812H39.1158ZM43.1449 49.0812V48.319H45.9557V49.0812H43.1449ZM47.174 49.0812V48.319H49.9848V49.0812H47.174ZM51.203 49.0812V48.319H54.0139V49.0812H51.203ZM55.2321 49.0812V48.319H58.043V49.0812H55.2321ZM59.2612 49.0812V48.319H62.0721V49.0812H59.2612ZM63.2903 49.0812V48.319H66.1011V49.0812H63.2903ZM67.3194 49.0812V48.319H70.1302V49.0812H67.3194ZM71.3484 49.0812V48.319H74.1593V49.0812H71.3484ZM75.3775 49.0812V48.319H78.1884V49.0812H75.3775ZM79.4066 49.0812V48.319H82.2175V49.0812H79.4066ZM83.4357 49.0812V48.319H86.2465V49.0812H83.4357ZM87.4648 49.0812V48.319H90.2756V49.0812H87.4648ZM91.4938 49.0812V48.319H94.3047V49.0812H91.4938ZM95.5229 49.0812V48.319H98.3338V49.0812H95.5229Z" fill="#02171A"/>
<rect x="22.793" y="66.2075" width="95.9894" height="25.8123" rx="4.69314" fill="#02171A"/>
<path d="M64.4063 77.0637C64.3301 76.9748 64.2284 76.889 64.1014 76.8064C63.9743 76.7239 63.8314 76.6508 63.6726 76.5873C63.5138 76.5174 63.3391 76.4634 63.1486 76.4253C62.9643 76.3808 62.7706 76.3586 62.5673 76.3586C62.0464 76.3586 61.6621 76.4571 61.4144 76.654C61.1667 76.8509 61.0428 77.1209 61.0428 77.4639C61.0428 77.7053 61.1063 77.8959 61.2334 78.0356C61.3604 78.1754 61.5541 78.2897 61.8146 78.3786C62.0814 78.4676 62.4181 78.5597 62.8246 78.6549C63.2947 78.7566 63.7012 78.8804 64.0442 79.0266C64.3872 79.1727 64.6509 79.3696 64.8351 79.6173C65.0193 79.8587 65.1114 80.1827 65.1114 80.5892C65.1114 80.9132 65.0479 81.1958 64.9208 81.4372C64.8001 81.6723 64.6286 81.8692 64.4063 82.028C64.184 82.1804 63.9235 82.2948 63.625 82.371C63.3264 82.4409 63.0025 82.4758 62.6531 82.4758C62.3101 82.4758 61.9734 82.4409 61.6431 82.371C61.3191 82.2948 61.011 82.1868 60.7188 82.047C60.4266 81.9073 60.1535 81.7326 59.8994 81.523L60.3091 80.7988C60.4107 80.9068 60.541 81.0148 60.6998 81.1228C60.8649 81.2244 61.0491 81.3197 61.2524 81.4086C61.462 81.4976 61.6875 81.5706 61.9289 81.6278C62.1703 81.6786 62.4181 81.704 62.6721 81.704C63.1549 81.704 63.5297 81.6183 63.7965 81.4468C64.0633 81.2689 64.1967 81.0116 64.1967 80.675C64.1967 80.4209 64.1205 80.2176 63.968 80.0651C63.8219 79.9127 63.6027 79.7856 63.3105 79.684C63.0183 79.5824 62.6626 79.4807 62.2434 79.3791C61.786 79.2648 61.4017 79.1409 61.0904 79.0075C60.7792 78.8677 60.5441 78.6867 60.3853 78.4644C60.2329 78.242 60.1567 77.953 60.1567 77.5973C60.1567 77.1653 60.2615 76.8001 60.4711 76.5015C60.6807 76.203 60.9697 75.9775 61.3382 75.825C61.7066 75.6726 62.1227 75.5963 62.5864 75.5963C62.8913 75.5963 63.174 75.6281 63.4344 75.6916C63.7012 75.7551 63.9489 75.8441 64.1776 75.9584C64.4063 76.0728 64.6159 76.2093 64.8065 76.3681L64.4063 77.0637ZM65.7153 80.9703C65.7153 80.6527 65.8042 80.3796 65.9821 80.1509C66.1663 79.9159 66.4172 79.7348 66.7348 79.6078C67.0524 79.4807 67.4208 79.4172 67.8401 79.4172C68.0624 79.4172 68.2974 79.4363 68.5452 79.4744C68.7929 79.5061 69.0121 79.557 69.2026 79.6268V79.2648C69.2026 78.8836 69.0883 78.5851 68.8596 78.3691C68.6309 78.1468 68.307 78.0356 67.8877 78.0356C67.6146 78.0356 67.351 78.0864 67.0969 78.1881C66.8491 78.2833 66.5855 78.4231 66.306 78.6073L66.0011 78.0165C66.3251 77.7942 66.649 77.6291 66.973 77.5211C67.297 77.4067 67.6336 77.3496 67.983 77.3496C68.6182 77.3496 69.1201 77.5274 69.4885 77.8831C69.8569 78.2325 70.0411 78.7216 70.0411 79.3505V81.4563C70.0411 81.5579 70.0602 81.6341 70.0983 81.685C70.1428 81.7294 70.2126 81.7548 70.3079 81.7612V82.4091C70.2253 82.4218 70.1523 82.4314 70.0888 82.4377C70.0316 82.4441 69.984 82.4472 69.9459 82.4472C69.7489 82.4472 69.5997 82.3932 69.498 82.2852C69.4027 82.1773 69.3487 82.0629 69.336 81.9422L69.317 81.6278C69.101 81.9073 68.8183 82.1233 68.469 82.2757C68.1196 82.4282 67.7734 82.5044 67.4304 82.5044C67.1 82.5044 66.8047 82.4377 66.5442 82.3043C66.2838 82.1646 66.0805 81.9803 65.9344 81.7517C65.7883 81.5166 65.7153 81.2562 65.7153 80.9703ZM68.9549 81.3229C69.0311 81.234 69.0915 81.145 69.1359 81.0561C69.1804 80.9608 69.2026 80.8814 69.2026 80.8179V80.1985C69.0057 80.1223 68.7993 80.0651 68.5833 80.027C68.3673 79.9826 68.1545 79.9603 67.9449 79.9603C67.5193 79.9603 67.1731 80.0461 66.9063 80.2176C66.6459 80.3828 66.5156 80.6114 66.5156 80.9036C66.5156 81.0624 66.5569 81.2181 66.6395 81.3705C66.7284 81.5166 66.8555 81.6373 67.0206 81.7326C67.1922 81.8279 67.4018 81.8755 67.6495 81.8755C67.91 81.8755 68.1577 81.8247 68.3927 81.7231C68.6278 81.6151 68.8152 81.4817 68.9549 81.3229ZM72.6529 82.4091L70.6996 77.4353H71.5762L73.1389 81.6087L74.7015 77.4353H75.521L73.5677 82.4091H72.6529ZM78.3936 82.5044C78.0189 82.5044 77.6758 82.4377 77.3646 82.3043C77.0597 82.1646 76.7929 81.9772 76.5642 81.7421C76.3419 81.5007 76.1672 81.2244 76.0401 80.9132C75.9194 80.6019 75.8591 80.2716 75.8591 79.9222C75.8591 79.4522 75.9671 79.0234 76.1831 78.6359C76.399 78.2484 76.6976 77.9371 77.0787 77.7021C77.4662 77.4671 77.9077 77.3496 78.4032 77.3496C78.905 77.3496 79.3401 77.4703 79.7085 77.7116C80.0833 77.9467 80.3724 78.2579 80.5756 78.6454C80.7853 79.0266 80.8901 79.4394 80.8901 79.8841C80.8901 79.9476 80.8869 80.0111 80.8805 80.0747C80.8805 80.1318 80.8774 80.1763 80.871 80.2081H76.7452C76.7706 80.532 76.8596 80.8211 77.012 81.0751C77.1708 81.3229 77.3741 81.5198 77.6218 81.6659C77.8696 81.8057 78.1364 81.8755 78.4222 81.8755C78.7271 81.8755 79.013 81.7993 79.2798 81.6468C79.5529 81.4944 79.7403 81.2943 79.8419 81.0466L80.5661 81.2467C80.4581 81.488 80.2961 81.704 80.0802 81.8946C79.8705 82.0852 79.6196 82.2344 79.3274 82.3424C79.0416 82.4504 78.7303 82.5044 78.3936 82.5044ZM76.7166 79.6268H80.1087C80.0833 79.3029 79.9912 79.017 79.8324 78.7693C79.6736 78.5215 79.4703 78.3278 79.2226 78.1881C78.9749 78.0483 78.7017 77.9784 78.4032 77.9784C78.111 77.9784 77.841 78.0483 77.5933 78.1881C77.3455 78.3278 77.1422 78.5215 76.9834 78.7693C76.831 79.017 76.7421 79.3029 76.7166 79.6268Z" fill="white"/>
</g>
<defs>
<filter id="filter0_d_435_7801" x="0.804903" y="0.715576" width="139.159" height="123.987" filterUnits="userSpaceOnUse" color-interpolation-filters="sRGB">
<feFlood flood-opacity="0" result="BackgroundImageFix"/>
<feColorMatrix in="SourceAlpha" type="matrix" values="0 0 0 0 0 0 0 0 0 0 0 0 0 0 0 0 0 0 127 0" result="hardAlpha"/>
<feOffset dy="10.6951"/>
<feGaussianBlur stdDeviation="5.34755"/>
<feComposite in2="hardAlpha" operator="out"/>
<feColorMatrix type="matrix" values="0 0 0 0 0 0 0 0 0 0 0 0 0 0 0 0 0 0 0.15 0"/>
<feBlend mode="normal" in2="BackgroundImageFix" result="effect1_dropShadow_435_7801"/>
<feBlend mode="normal" in="SourceGraphic" in2="effect1_dropShadow_435_7801" result="shape"/>
</filter>
</defs>
</svg>
