<svg width="127" height="26" viewBox="0 0 127 26" fill="none" xmlns="http://www.w3.org/2000/svg">
<path d="M27.0008 8.94507C27.7065 7.70812 28.6701 6.7445 29.8932 6.05268C31.1147 5.36239 32.486 5.01648 34.004 5.01648C35.7799 5.01648 37.3365 5.47204 38.6723 6.38315C40.008 7.29426 40.9423 8.55437 41.4735 10.1635H37.8075C37.443 9.40371 36.9303 8.83542 36.2709 8.45554C35.61 8.07565 34.8471 7.88571 33.9823 7.88571C33.0558 7.88571 32.2327 8.1019 31.5115 8.53429C30.7904 8.96669 30.2283 9.57821 29.8268 10.3673C29.4237 11.1564 29.2229 12.083 29.2229 13.1454C29.2229 14.2079 29.4237 15.1159 29.8268 15.9127C30.2283 16.7096 30.7904 17.3242 31.5115 17.7581C32.2327 18.1905 33.0558 18.4067 33.9823 18.4067C34.8471 18.4067 35.61 18.2137 36.2709 17.8261C36.9319 17.4385 37.4446 16.8656 37.8075 16.1073H41.4735C40.9423 17.7319 40.0127 18.9966 38.6831 19.9C37.355 20.8034 35.7938 21.2543 34.0024 21.2543C32.4844 21.2543 31.1131 20.9084 29.8916 20.2181C28.6686 19.5279 27.7049 18.5673 26.9992 17.3366C26.2935 16.1058 25.9414 14.7098 25.9414 13.147C25.9414 11.5842 26.295 10.1836 27.0008 8.94507Z" fill="#004A42"/>
<path d="M43.6945 11.3695C44.2026 10.3828 44.8944 9.62453 45.7669 9.09176C46.6394 8.56053 47.6154 8.29492 48.6933 8.29492C49.6353 8.29492 50.4583 8.48487 51.1641 8.86475C51.8698 9.24464 52.435 9.72336 52.8612 10.2994V8.50031H56.0717V21.1169H52.8612V19.2715C52.452 19.8629 51.8852 20.3525 51.1641 20.7401C50.4429 21.1277 49.6121 21.3207 48.6701 21.3207C47.6076 21.3207 46.6394 21.0474 45.7669 20.5007C44.8944 19.9541 44.2026 19.1835 43.6945 18.189C43.1864 17.1945 42.9316 16.0517 42.9316 14.7607C42.9316 13.4697 43.1864 12.3548 43.6945 11.368V11.3695ZM52.4057 12.8165C52.1014 12.2621 51.6922 11.8374 51.1764 11.5409C50.6606 11.2445 50.1063 11.0962 49.5133 11.0962C48.9203 11.0962 48.3751 11.2414 47.8733 11.5286C47.3729 11.8174 46.9652 12.239 46.6548 12.7933C46.3429 13.3477 46.1885 14.004 46.1885 14.7638C46.1885 15.5236 46.3444 16.1876 46.6548 16.7559C46.9652 17.3257 47.376 17.7612 47.8841 18.0654C48.3921 18.3696 48.9357 18.521 49.5117 18.521C50.0877 18.521 50.6576 18.3727 51.1749 18.0762C51.6907 17.7797 52.1014 17.3551 52.4041 16.8007C52.7083 16.2463 52.8597 15.5823 52.8597 14.8086C52.8597 14.0349 52.7083 13.3709 52.4041 12.8165H52.4057Z" fill="#004A42"/>
<path d="M62.4474 11.1193V17.2222C62.4474 17.6469 62.5494 17.9557 62.7548 18.1441C62.9601 18.3341 63.3045 18.4283 63.791 18.4283H65.2719V21.1153H63.2674C60.5804 21.1153 59.2369 19.8104 59.2369 17.1975V11.1162H57.7344V8.49717H59.2369V5.38086H62.4474V8.50026H65.2719V11.1193H62.4474Z" fill="#004A42"/>
<path d="M78.754 15.766H69.5301C69.6058 16.6771 69.9255 17.3905 70.486 17.9063C71.0481 18.4221 71.7384 18.68 72.5584 18.68C73.7429 18.68 74.586 18.1719 75.0864 17.1543H78.5254C78.161 18.3696 77.463 19.3672 76.4299 20.1486C75.3968 20.93 74.1289 21.3207 72.6264 21.3207C71.411 21.3207 70.3223 21.052 69.3587 20.5115C68.3951 19.9725 67.6431 19.2097 67.1041 18.2229C66.5652 17.2361 66.2949 16.098 66.2949 14.807C66.2949 13.516 66.5605 12.3547 67.0918 11.3679C67.623 10.3812 68.3673 9.62294 69.3232 9.09017C70.2791 8.55895 71.3802 8.29333 72.6248 8.29333C73.8695 8.29333 74.898 8.55123 75.8477 9.06701C76.7959 9.58279 77.5325 10.3163 78.0575 11.2645C78.581 12.2142 78.8436 13.3029 78.8436 14.5321C78.8436 14.9877 78.8127 15.3969 78.7524 15.7614L78.754 15.766ZM75.5435 13.6257C75.528 12.8057 75.2315 12.1493 74.6555 11.6552C74.078 11.1626 73.3723 10.9155 72.5368 10.9155C71.7477 10.9155 71.0821 11.1548 70.5447 11.6336C70.0058 12.1123 69.6753 12.7763 69.5533 13.6257H75.5435Z" fill="#004A42"/>
<path d="M91.3482 9.74184C92.2747 10.6916 92.738 12.015 92.738 13.7152V21.1168H89.5491V14.1476C89.5491 13.1454 89.299 12.3748 88.7971 11.8359C88.2967 11.2969 87.6126 11.0267 86.7478 11.0267C85.8831 11.0267 85.1727 11.2969 84.6646 11.8359C84.155 12.3748 83.9018 13.1454 83.9018 14.1476V21.1168H80.7129V8.50026H83.9018V10.0723C84.3264 9.52564 84.87 9.09634 85.5294 8.78595C86.1904 8.47555 86.9146 8.31958 87.7037 8.31958C89.2063 8.31958 90.4216 8.79367 91.3482 9.74338V9.74184Z" fill="#004A42"/>
<path d="M95.2542 11.3695C95.7623 10.3827 96.4572 9.62452 97.3374 9.09175C98.2177 8.56052 99.1967 8.29491 100.275 8.29491C101.095 8.29491 101.876 8.47405 102.62 8.83077C103.365 9.18749 103.956 9.66158 104.396 10.2546V4.2644H107.63V21.1169H104.396V19.2499C104.001 19.8722 103.447 20.3741 102.733 20.7524C102.02 21.1323 101.192 21.3223 100.25 21.3223C99.1875 21.3223 98.2146 21.0489 97.3343 20.5023C96.4541 19.9556 95.7592 19.185 95.2511 18.1905C94.7431 17.196 94.4883 16.0533 94.4883 14.7623C94.4883 13.4713 94.7431 12.3563 95.2511 11.3695H95.2542ZM103.965 12.8165C103.661 12.2621 103.252 11.8374 102.736 11.5409C102.22 11.2444 101.666 11.0962 101.073 11.0962C100.48 11.0962 99.9349 11.2414 99.433 11.5286C98.9326 11.8174 98.525 12.2389 98.2146 12.7933C97.9026 13.3477 97.7482 14.004 97.7482 14.7638C97.7482 15.5236 97.9042 16.1876 98.2146 16.7559C98.525 17.3257 98.9357 17.7612 99.4438 18.0654C99.9519 18.3696 100.495 18.521 101.071 18.521C101.647 18.521 102.217 18.3727 102.735 18.0762C103.25 17.7797 103.661 17.3551 103.964 16.8007C104.267 16.2463 104.419 15.5823 104.419 14.8086C104.419 14.0349 104.268 13.3709 103.964 12.8165H103.965Z" fill="#004A42"/>
<path d="M110.239 11.3695C110.747 10.3828 111.439 9.62453 112.312 9.09176C113.184 8.56053 114.16 8.29492 115.238 8.29492C116.179 8.29492 117.003 8.48487 117.709 8.86475C118.415 9.24464 118.98 9.72336 119.406 10.2994V8.50031H122.617V21.1169H119.406V19.2715C118.997 19.8629 118.43 20.3525 117.709 20.7401C116.988 21.1277 116.157 21.3207 115.215 21.3207C114.153 21.3207 113.184 21.0474 112.312 20.5007C111.439 19.9541 110.747 19.1835 110.239 18.189C109.731 17.1945 109.477 16.0517 109.477 14.7607C109.477 13.4697 109.731 12.3548 110.239 11.368V11.3695ZM118.951 12.8165C118.646 12.2621 118.237 11.8374 117.721 11.5409C117.206 11.2445 116.651 11.0962 116.058 11.0962C115.465 11.0962 114.92 11.2414 114.418 11.5286C113.918 11.8174 113.51 12.239 113.2 12.7933C112.888 13.3477 112.733 14.004 112.733 14.7638C112.733 15.5236 112.889 16.1876 113.2 16.7559C113.51 17.3257 113.921 17.7612 114.429 18.0654C114.937 18.3696 115.481 18.521 116.057 18.521C116.633 18.521 117.202 18.3727 117.72 18.0762C118.236 17.7797 118.646 17.3551 118.949 16.8007C119.252 16.2463 119.405 15.5823 119.405 14.8086C119.405 14.0349 119.253 13.3709 118.949 12.8165H118.951Z" fill="#004A42"/>
<g clip-path="url(#clip0_744_570)">
<path d="M8.66797e-06 7.75478L0.0115068 13.0499L9.92103 7.30819L9.90999 0L1.72104 4.75699C0.65356 5.37697 -0.00275088 6.51988 8.66797e-06 7.75478Z" fill="#004A42"/>
<path d="M19.7988 13.1101L9.92103 18.843L0.0115068 13.1018L8.66797e-06 18.3965C-0.00275088 19.6313 0.65356 20.7743 1.72104 21.3942L8.09789 25.0985C9.21872 25.7493 10.6022 25.7497 11.723 25.0985L19.8149 20.4003L19.7988 13.1096V13.1101Z" fill="#004A42"/>
</g>
<defs>
<clipPath id="clip0_744_570">
<rect width="20.2562" height="25.5868" fill="white"/>
</clipPath>
</defs>
</svg>
