<svg width="127" height="26" viewBox="0 0 127 26" fill="none" xmlns="http://www.w3.org/2000/svg">
<path d="M27.0017 8.94507C27.7075 7.70812 28.6711 6.7445 29.8941 6.05268C31.1156 5.36239 32.4869 5.01648 34.0049 5.01648C35.7808 5.01648 37.3374 5.47204 38.6732 6.38315C40.009 7.29426 40.9433 8.55437 41.4745 10.1635H37.8084C37.444 9.40371 36.9313 8.83542 36.2719 8.45554C35.611 8.07565 34.8481 7.88571 33.9833 7.88571C33.0568 7.88571 32.2337 8.1019 31.5125 8.53429C30.7913 8.96669 30.2292 9.57821 29.8277 10.3673C29.4247 11.1564 29.2239 12.083 29.2239 13.1454C29.2239 14.2079 29.4247 15.1159 29.8277 15.9127C30.2292 16.7096 30.7913 17.3242 31.5125 17.7581C32.2337 18.1905 33.0568 18.4067 33.9833 18.4067C34.8481 18.4067 35.611 18.2137 36.2719 17.8261C36.9329 17.4385 37.4455 16.8656 37.8084 16.1073H41.4745C40.9433 17.7319 40.0136 18.9966 38.684 19.9C37.356 20.8034 35.7947 21.2543 34.0034 21.2543C32.4854 21.2543 31.1141 20.9084 29.8926 20.2181C28.6695 19.5279 27.7059 18.5673 27.0002 17.3366C26.2945 16.1058 25.9424 14.7098 25.9424 13.147C25.9424 11.5842 26.296 10.1836 27.0017 8.94507Z" fill="white"/>
<path d="M43.6955 11.3695C44.2035 10.3828 44.8954 9.62453 45.7679 9.09176C46.6404 8.56053 47.6163 8.29492 48.6942 8.29492C49.6362 8.29492 50.4593 8.48487 51.165 8.86475C51.8708 9.24464 52.436 9.72336 52.8622 10.2994V8.50031H56.0727V21.1169H52.8622V19.2715C52.453 19.8629 51.8862 20.3525 51.165 20.7401C50.4439 21.1277 49.6131 21.3207 48.6711 21.3207C47.6086 21.3207 46.6404 21.0474 45.7679 20.5007C44.8954 19.9541 44.2035 19.1835 43.6955 18.189C43.1874 17.1945 42.9326 16.0517 42.9326 14.7607C42.9326 13.4697 43.1874 12.3548 43.6955 11.368V11.3695ZM52.4066 12.8165C52.1024 12.2621 51.6932 11.8374 51.1774 11.5409C50.6616 11.2445 50.1072 11.0962 49.5142 11.0962C48.9212 11.0962 48.3761 11.2414 47.8742 11.5286C47.3739 11.8174 46.9662 12.239 46.6558 12.7933C46.3439 13.3477 46.1895 14.004 46.1895 14.7638C46.1895 15.5236 46.3454 16.1876 46.6558 16.7559C46.9662 17.3257 47.377 17.7612 47.885 18.0654C48.3931 18.3696 48.9367 18.521 49.5127 18.521C50.0887 18.521 50.6585 18.3727 51.1759 18.0762C51.6916 17.7797 52.1024 17.3551 52.4051 16.8007C52.7093 16.2463 52.8606 15.5823 52.8606 14.8086C52.8606 14.0349 52.7093 13.3709 52.4051 12.8165H52.4066Z" fill="white"/>
<path d="M62.4484 11.1193V17.2222C62.4484 17.6469 62.5503 17.9557 62.7557 18.1441C62.9611 18.3341 63.3055 18.4283 63.7919 18.4283H65.2729V21.1153H63.2684C60.5814 21.1153 59.2379 19.8104 59.2379 17.1975V11.1162H57.7354V8.49717H59.2379V5.38086H62.4484V8.50026H65.2729V11.1193H62.4484Z" fill="white"/>
<path d="M78.754 15.766H69.5301C69.6058 16.6771 69.9255 17.3905 70.486 17.9063C71.0481 18.4221 71.7384 18.68 72.5584 18.68C73.7429 18.68 74.586 18.1719 75.0864 17.1543H78.5254C78.161 18.3696 77.463 19.3672 76.4299 20.1486C75.3968 20.93 74.1289 21.3207 72.6264 21.3207C71.411 21.3207 70.3223 21.052 69.3587 20.5115C68.3951 19.9725 67.6431 19.2097 67.1041 18.2229C66.5652 17.2361 66.2949 16.098 66.2949 14.807C66.2949 13.516 66.5605 12.3547 67.0918 11.3679C67.623 10.3812 68.3673 9.62294 69.3232 9.09017C70.2791 8.55895 71.3802 8.29333 72.6248 8.29333C73.8695 8.29333 74.898 8.55123 75.8477 9.06701C76.7959 9.58279 77.5325 10.3163 78.0575 11.2645C78.581 12.2142 78.8436 13.3029 78.8436 14.5321C78.8436 14.9877 78.8127 15.3969 78.7524 15.7614L78.754 15.766ZM75.5435 13.6257C75.528 12.8057 75.2315 12.1493 74.6555 11.6552C74.078 11.1626 73.3723 10.9155 72.5368 10.9155C71.7477 10.9155 71.0821 11.1548 70.5447 11.6336C70.0058 12.1123 69.6753 12.7763 69.5533 13.6257H75.5435Z" fill="white"/>
<path d="M91.3492 9.74184C92.2757 10.6916 92.739 12.015 92.739 13.7152V21.1168H89.5501V14.1476C89.5501 13.1454 89.2999 12.3748 88.798 11.8359C88.2977 11.2969 87.6136 11.0267 86.7488 11.0267C85.884 11.0267 85.1737 11.2969 84.6656 11.8359C84.156 12.3748 83.9028 13.1454 83.9028 14.1476V21.1168H80.7139V8.50026H83.9028V10.0723C84.3274 9.52564 84.871 9.09634 85.5304 8.78595C86.1913 8.47555 86.9156 8.31958 87.7047 8.31958C89.2073 8.31958 90.4226 8.79367 91.3492 9.74338V9.74184Z" fill="white"/>
<path d="M95.2552 11.3695C95.7633 10.3827 96.4582 9.62452 97.3384 9.09175C98.2186 8.56052 99.1977 8.29491 100.276 8.29491C101.096 8.29491 101.877 8.47405 102.621 8.83077C103.366 9.18749 103.957 9.66158 104.397 10.2546V4.2644H107.631V21.1169H104.397V19.2499C104.002 19.8722 103.447 20.3741 102.734 20.7524C102.021 21.1323 101.193 21.3223 100.251 21.3223C99.1884 21.3223 98.2155 21.0489 97.3353 20.5023C96.4551 19.9556 95.7602 19.185 95.2521 18.1905C94.7441 17.196 94.4893 16.0533 94.4893 14.7623C94.4893 13.4713 94.7441 12.3563 95.2521 11.3695H95.2552ZM103.966 12.8165C103.662 12.2621 103.253 11.8374 102.737 11.5409C102.221 11.2444 101.667 11.0962 101.074 11.0962C100.481 11.0962 99.9358 11.2414 99.434 11.5286C98.9336 11.8174 98.5259 12.2389 98.2155 12.7933C97.9036 13.3477 97.7492 14.004 97.7492 14.7638C97.7492 15.5236 97.9052 16.1876 98.2155 16.7559C98.5259 17.3257 98.9367 17.7612 99.4448 18.0654C99.9528 18.3696 100.496 18.521 101.072 18.521C101.648 18.521 102.218 18.3727 102.736 18.0762C103.251 17.7797 103.662 17.3551 103.965 16.8007C104.267 16.2463 104.42 15.5823 104.42 14.8086C104.42 14.0349 104.269 13.3709 103.965 12.8165H103.966Z" fill="white"/>
<path d="M110.24 11.3695C110.748 10.3828 111.44 9.62453 112.313 9.09176C113.185 8.56053 114.161 8.29492 115.239 8.29492C116.18 8.29492 117.004 8.48487 117.71 8.86475C118.416 9.24464 118.981 9.72336 119.407 10.2994V8.50031H122.618V21.1169H119.407V19.2715C118.998 19.8629 118.431 20.3525 117.71 20.7401C116.989 21.1277 116.158 21.3207 115.216 21.3207C114.154 21.3207 113.185 21.0474 112.313 20.5007C111.44 19.9541 110.748 19.1835 110.24 18.189C109.732 17.1945 109.478 16.0517 109.478 14.7607C109.478 13.4697 109.732 12.3548 110.24 11.368V11.3695ZM118.952 12.8165C118.647 12.2621 118.238 11.8374 117.722 11.5409C117.207 11.2445 116.652 11.0962 116.059 11.0962C115.466 11.0962 114.921 11.2414 114.419 11.5286C113.919 11.8174 113.511 12.239 113.201 12.7933C112.889 13.3477 112.734 14.004 112.734 14.7638C112.734 15.5236 112.89 16.1876 113.201 16.7559C113.511 17.3257 113.922 17.7612 114.43 18.0654C114.938 18.3696 115.482 18.521 116.058 18.521C116.634 18.521 117.203 18.3727 117.721 18.0762C118.237 17.7797 118.647 17.3551 118.95 16.8007C119.253 16.2463 119.406 15.5823 119.406 14.8086C119.406 14.0349 119.254 13.3709 118.95 12.8165H118.952Z" fill="white"/>
<g clip-path="url(#clip0_646_417)">
<path d="M8.66797e-06 7.75478L0.0115068 13.0499L9.92103 7.30819L9.90999 0L1.72104 4.75699C0.65356 5.37697 -0.00275088 6.51988 8.66797e-06 7.75478Z" fill="white"/>
<path d="M19.7988 13.1101L9.92103 18.843L0.0115068 13.1018L8.66797e-06 18.3965C-0.00275088 19.6313 0.65356 20.7743 1.72104 21.3942L8.09789 25.0985C9.21872 25.7493 10.6022 25.7497 11.723 25.0985L19.8149 20.4003L19.7988 13.1096V13.1101Z" fill="white"/>
</g>
<defs>
<clipPath id="clip0_646_417">
<rect width="20.2562" height="25.5868" fill="white"/>
</clipPath>
</defs>
</svg>
