<svg width="32" height="32" viewBox="0 0 32 32" fill="none" xmlns="http://www.w3.org/2000/svg">
<path opacity="0.4" d="M23.9965 9.54663C23.9165 9.5333 23.8232 9.5333 23.7432 9.54663C21.9032 9.47996 20.4365 7.9733 20.4365 6.10663C20.4365 4.19996 21.9699 2.66663 23.8765 2.66663C25.7832 2.66663 27.3165 4.2133 27.3165 6.10663C27.3032 7.9733 25.8365 9.47996 23.9965 9.54663Z" stroke="#004A42" stroke-width="2" stroke-linecap="round" stroke-linejoin="round"/>
<path opacity="0.4" d="M22.623 19.2533C24.4497 19.5599 26.463 19.2399 27.8763 18.2933C29.7563 17.0399 29.7563 14.9866 27.8763 13.7333C26.4497 12.7866 24.4097 12.4666 22.583 12.7866" stroke="#004A42" stroke-width="2" stroke-linecap="round" stroke-linejoin="round"/>
<path opacity="0.4" d="M7.95672 9.54663C8.03672 9.5333 8.13005 9.5333 8.21005 9.54663C10.0501 9.47996 11.5167 7.9733 11.5167 6.10663C11.5167 4.19996 9.98339 2.66663 8.07672 2.66663C6.17005 2.66663 4.63672 4.2133 4.63672 6.10663C4.65005 7.9733 6.11672 9.47996 7.95672 9.54663Z" stroke="#004A42" stroke-width="2" stroke-linecap="round" stroke-linejoin="round"/>
<path opacity="0.4" d="M9.33032 19.2533C7.50366 19.5599 5.49033 19.2399 4.07699 18.2933C2.19699 17.0399 2.19699 14.9866 4.07699 13.7333C5.50366 12.7866 7.54365 12.4666 9.37032 12.7866" stroke="#004A42" stroke-width="2" stroke-linecap="round" stroke-linejoin="round"/>
<path d="M16.0004 19.5065C15.9204 19.4931 15.8271 19.4931 15.7471 19.5065C13.9071 19.4398 12.4404 17.9331 12.4404 16.0665C12.4404 14.1598 13.9738 12.6265 15.8804 12.6265C17.7871 12.6265 19.3204 14.1731 19.3204 16.0665C19.3071 17.9331 17.8404 19.4531 16.0004 19.5065Z" stroke="#004A42" stroke-width="2" stroke-linecap="round" stroke-linejoin="round"/>
<path d="M12.12 23.7064C10.24 24.9597 10.24 27.013 12.12 28.2664C14.2533 29.693 17.7466 29.693 19.88 28.2664C21.76 27.013 21.76 24.9597 19.88 23.7064C17.76 22.293 14.2533 22.293 12.12 23.7064Z" stroke="#004A42" stroke-width="2" stroke-linecap="round" stroke-linejoin="round"/>
</svg>
