<svg width="134" height="37" viewBox="0 0 134 37" fill="none" xmlns="http://www.w3.org/2000/svg">
<path fill-rule="evenodd" clip-rule="evenodd" d="M32.0517 9.23552L32.3029 9.68396C32.6191 10.2289 32.7861 10.8476 32.7872 11.4776V25.3791C32.782 26.0086 32.6152 26.6262 32.3029 27.1728L32.0338 27.6213C31.7266 28.1703 31.2733 28.6234 30.7245 28.9307L18.6884 35.8903C18.1434 36.2065 17.5248 36.3735 16.8947 36.3747H16.3925C15.7615 36.3806 15.141 36.213 14.5987 35.8903L2.54486 28.9487C2.00761 28.6261 1.55792 28.1765 1.23543 27.6392L0.98431 27.1908C0.668157 26.6457 0.50112 26.0271 0.5 25.397V11.4955C0.50112 10.8656 0.668157 10.2468 0.98431 9.70189L1.23543 9.25346C1.54979 8.70991 2.00131 8.25832 2.54486 7.94403L14.5808 0.98431C15.1258 0.668174 15.7444 0.501137 16.3745 0.5H16.8947C17.5248 0.501137 18.1434 0.668174 18.6884 0.98431L30.7245 7.92609C31.2711 8.24249 31.7279 8.6932 32.0517 9.23552ZM16.8947 4.08739H16.3745L5.88122 10.1502L16.6436 16.3565L27.406 10.1502L16.8947 4.08739ZM28.9306 25.8276L18.4373 31.8905V19.4778L29.1997 13.2536V25.3792L28.9306 25.8276ZM79.5633 27.0475H75.8438V7.41687H79.5633V27.0475ZM46 27.4683H50.1586V20.3392H51.9667L56.3836 27.4683H60.8263L55.9445 19.6161C58.1142 18.9703 59.7415 17.498 59.7415 14.7084V14.605C59.7415 10.7823 56.9777 9 52.6124 9H46V27.4683ZM50.1586 17.498V12.2029H52.5091C54.5239 12.2029 55.6604 12.8487 55.6604 14.7342V14.8375C55.6604 16.6198 54.6014 17.498 52.5091 17.498H50.1586ZM67.5806 27.3309C71.2742 27.3309 73.5989 25.7037 74.038 22.7849H70.4993C70.2668 23.9214 69.4145 24.6705 67.6839 24.6705C65.6433 24.6705 64.4294 23.379 64.326 21.1318H74.0639V20.0986C74.0639 15.2684 70.9643 13.2279 67.4772 13.2279C63.5511 13.2279 60.529 15.9917 60.529 20.2536V20.4602C60.529 24.7738 63.4994 27.3309 67.5806 27.3309ZM64.3777 18.833C64.6618 16.9215 65.7983 15.8109 67.4772 15.8109C69.2595 15.8109 70.2927 16.7924 70.4219 18.833H64.3777ZM86.6985 27.332C88.9201 27.332 90.2886 26.2988 90.986 24.9299V27.0479H94.7056V13.5389H90.986V21.4687C90.986 23.4576 89.7461 24.4391 88.1711 24.4391C86.5698 24.4391 85.82 23.5609 85.82 21.727V13.5389H82.1009V22.2436C82.1009 25.7822 84.0639 27.332 86.6985 27.332ZM100.991 27.0468H97.2448V13.5378H100.991V15.6042C101.662 14.3385 103.108 13.2279 105.123 13.2279C106.906 13.2279 108.249 13.977 108.895 15.5784C109.979 13.9511 111.736 13.2279 113.44 13.2279C115.946 13.2279 117.883 14.8035 117.883 18.3939V27.0468H114.164V18.8071C114.164 17.0765 113.388 16.3016 112.045 16.3016C110.599 16.3016 109.437 17.2315 109.437 19.0654V27.0468H105.717V18.8071C105.717 17.0765 104.917 16.3016 103.599 16.3016C102.153 16.3016 100.991 17.2315 100.991 19.0654V27.0468ZM126.531 27.3309C130.226 27.3309 132.551 25.7037 132.989 22.7849H129.45C129.218 23.9214 128.365 24.6705 126.635 24.6705C124.594 24.6705 123.381 23.379 123.277 21.1318H133.015V20.0986C133.015 15.2684 129.915 13.2279 126.428 13.2279C122.502 13.2279 119.48 15.9917 119.48 20.2536V20.4602C119.48 24.7738 122.45 27.3309 126.531 27.3309ZM123.329 18.833C123.613 16.9215 124.75 15.8109 126.428 15.8109C128.211 15.8109 129.244 16.7924 129.373 18.833H123.329Z" fill="white"/>
</svg>
