<svg width="136" height="24" viewBox="0 0 136 24" fill="none" xmlns="http://www.w3.org/2000/svg">
<path fill-rule="evenodd" clip-rule="evenodd" d="M36.5702 0.75L25.0607 23.25H14.25L19.0667 13.925H18.8506C14.8769 19.0835 8.94788 22.4794 0.5 23.25V14.0541C0.5 14.0541 5.90431 13.7349 9.08135 10.3947H0.5V0.750177H10.1445V8.68265L10.361 8.68176L14.3021 0.750177H21.596V8.63235L21.8124 8.632L25.9014 0.75H36.5702Z" fill="#02171A"/>
<path d="M99.333 20.7665H102.439V2.9375H99.333V20.7665Z" fill="#02171A"/>
<path fill-rule="evenodd" clip-rule="evenodd" d="M82.2092 20.5844C82.8842 20.8651 83.5707 21.0054 84.2686 21.0054C85.4214 21.0054 86.4531 20.7248 87.3633 20.1634C88.2734 19.6022 88.9789 18.8286 89.4796 17.8424C89.9802 16.8488 90.2304 15.7223 90.2304 14.4632C90.2304 13.2041 89.9726 12.0777 89.4568 11.084C88.9409 10.0904 88.2242 9.32049 87.3063 8.77436C86.3886 8.22064 85.3456 7.94758 84.1774 7.95516C83.4342 7.95516 82.7212 8.09928 82.0384 8.38752C81.3558 8.67576 80.7869 9.08536 80.3318 9.61632C80.2967 9.65674 80.2626 9.69757 80.2294 9.73881V2.94894H77.1119V20.7666H80.2067L80.2004 19.1021C80.2804 19.2002 80.3661 19.2961 80.4569 19.3898C80.9499 19.8981 81.5341 20.2962 82.2092 20.5844ZM85.3949 17.7059C84.8867 18.0169 84.3064 18.1724 83.6541 18.1724C83.0093 18.1724 82.4177 18.0131 81.8792 17.6946C81.3406 17.3683 80.9121 16.9247 80.5934 16.3633C80.2824 15.8021 80.1269 15.1648 80.1269 14.4518C80.1194 13.7388 80.2711 13.1017 80.5821 12.5404C80.9007 11.9715 81.3292 11.5316 81.8678 11.2206C82.4063 10.902 83.0018 10.7465 83.6541 10.7541C84.3064 10.7465 84.8867 10.8982 85.3949 11.2092C85.9107 11.5126 86.3051 11.9488 86.5782 12.5176C86.8588 13.0789 86.9992 13.7237 86.9992 14.4518C86.9992 15.1801 86.8588 15.8248 86.5782 16.3861C86.3051 16.9474 85.9107 17.3873 85.3949 17.7059Z" fill="#02171A"/>
<path d="M41.0701 4.01843H44.6199L47.7954 15.6154L51.1736 4.01843H54.1318L57.7954 15.3827L60.8447 4.01843H64.0987L59.2973 20.7665H56.2367L52.5112 9.66453L49.0914 20.7665H45.9967L41.0701 4.01843Z" fill="#02171A"/>
<path fill-rule="evenodd" clip-rule="evenodd" d="M69.3413 21.0623C68.1048 21.0699 66.9898 20.7968 65.9962 20.2431C65.01 19.6818 64.2327 18.9043 63.6637 17.9106C63.1024 16.917 62.8218 15.783 62.8218 14.5086C62.8218 13.2723 63.11 12.1535 63.6865 11.1523C64.2629 10.151 65.0442 9.36974 66.0303 8.80844C67.0164 8.24714 68.1162 7.96649 69.3298 7.96649C70.6952 7.96649 71.8898 8.26989 72.9138 8.8767C73.9454 9.48352 74.7153 10.3444 75.2235 11.4595C75.7393 12.5669 75.9252 13.8374 75.781 15.271H66.0352C66.0624 15.8421 66.2049 16.3618 66.4627 16.8298C66.7509 17.3455 67.1529 17.7475 67.6686 18.0358C68.1845 18.324 68.7609 18.4681 69.3982 18.4681C69.8835 18.4605 70.3349 18.3771 70.752 18.2179C71.1693 18.051 71.5219 17.8273 71.8102 17.5465C72.106 17.2659 72.3147 16.9474 72.436 16.5909H75.69C75.4928 17.4631 75.0984 18.2406 74.5068 18.9233C73.915 19.5984 73.1718 20.1255 72.2766 20.5048C71.3817 20.884 70.4032 21.0699 69.3413 21.0623ZM66.474 12.1421C66.2923 12.4591 66.1663 12.8004 66.0962 13.1661H72.5565C72.5097 12.7041 72.367 12.2832 72.1288 11.9032C71.8557 11.4557 71.484 11.1105 71.0138 10.8678C70.5435 10.6175 70.0125 10.4924 69.4209 10.4924C68.7913 10.4924 68.2187 10.6365 67.7028 10.9247C67.187 11.2129 66.7774 11.6188 66.474 12.1421Z" fill="#02171A"/>
<path d="M92.5178 8.2282C92.5178 7.21179 92.749 6.30915 93.2118 5.52029C93.6744 4.72385 94.323 4.10565 95.1574 3.66572C95.9993 3.21819 96.9816 2.98684 98.1041 2.97168V5.73647C97.5808 5.74405 97.1333 5.85404 96.7616 6.06643C96.3975 6.27123 96.1169 6.57084 95.9196 6.96527C95.7381 7.32839 95.6401 7.74937 95.6258 8.2282H98.0359V10.8565H95.6239V20.7665H92.5178V10.8565H90.5153V8.2282H92.5178Z" fill="#02171A"/>
<path fill-rule="evenodd" clip-rule="evenodd" d="M110.335 21.0395C109.068 21.0395 107.934 20.7626 106.933 20.209C105.939 19.6476 105.158 18.874 104.589 17.8878C104.028 16.8942 103.747 15.7678 103.747 14.5086C103.747 13.242 104.028 12.1117 104.589 11.1181C105.158 10.1168 105.939 9.33935 106.933 8.78563C107.934 8.23191 109.068 7.95505 110.335 7.95505C111.609 7.95505 112.747 8.23191 113.748 8.78563C114.757 9.33935 115.542 10.113 116.103 11.1067C116.665 12.1003 116.949 13.2343 116.957 14.5086C116.949 15.7678 116.665 16.8942 116.103 17.8878C115.55 18.874 114.768 19.6476 113.759 20.209C112.751 20.7626 111.609 21.0395 110.335 21.0395ZM110.335 18.1837C111.002 18.1837 111.594 18.032 112.11 17.7286C112.626 17.4176 113.024 16.9852 113.304 16.4315C113.585 15.8702 113.725 15.2292 113.725 14.5086C113.725 13.7805 113.585 13.1357 113.304 12.5744C113.024 12.0131 112.626 11.5808 112.11 11.2774C111.594 10.9664 111.002 10.8109 110.335 10.8109C109.675 10.8109 109.087 10.9664 108.571 11.2774C108.063 11.5808 107.669 12.0131 107.388 12.5744C107.107 13.1357 106.971 13.7805 106.978 14.5086C106.978 15.2292 107.119 15.8702 107.399 16.4315C107.688 16.9852 108.082 17.4176 108.583 17.7286C109.091 18.032 109.675 18.1837 110.335 18.1837Z" fill="#02171A"/>
<path d="M120.313 8.22818H116.854L120.598 20.7665H123.624L126.086 12.7583L128.744 20.7665H131.725L135.48 8.22818H132.351L130.221 16.0325L127.867 8.22818H124.841L122.499 16.2044L120.313 8.22818Z" fill="#02171A"/>
</svg>
