<svg width="135" height="24" viewBox="0 0 135 24" fill="none" xmlns="http://www.w3.org/2000/svg">
<path fill-rule="evenodd" clip-rule="evenodd" d="M36.0693 0.749878L24.5598 23.2499H13.749L18.5658 13.9249H18.3496C14.3759 19.0834 8.4469 22.4793 -0.000976562 23.2499V14.054C-0.000976562 14.054 5.40334 13.7348 8.58037 10.3946H-0.000976562V0.750055H9.64354V8.68253L9.86 8.68164L13.8011 0.750055H21.095V8.63223L21.3114 8.63188L25.4004 0.749878H36.0693Z" fill="white"/>
<path d="M98.832 20.7664H101.938V2.93738H98.832V20.7664Z" fill="white"/>
<path fill-rule="evenodd" clip-rule="evenodd" d="M81.7082 20.5843C82.3832 20.8649 83.0697 21.0053 83.7676 21.0053C84.9205 21.0053 85.9521 20.7247 86.8623 20.1633C87.7725 19.6021 88.478 18.8284 88.9786 17.8423C89.4792 16.8487 89.7295 15.7222 89.7295 14.4631C89.7295 13.2039 89.4716 12.0776 88.9558 11.0839C88.44 10.0903 87.7232 9.32037 86.8053 8.77423C85.8876 8.22052 84.8446 7.94746 83.6765 7.95503C82.9332 7.95503 82.2202 8.09916 81.5375 8.3874C80.8548 8.67563 80.286 9.08523 79.8308 9.6162C79.7957 9.65662 79.7616 9.69745 79.7285 9.73868V2.94882H76.611V20.7664H79.7057L79.6995 19.1019C79.7795 19.2001 79.8651 19.2959 79.956 19.3897C80.449 19.8979 81.0331 20.2961 81.7082 20.5843ZM84.894 17.7058C84.3857 18.0168 83.8055 18.1723 83.1531 18.1723C82.5083 18.1723 81.9167 18.0129 81.3782 17.6944C80.8396 17.3682 80.4111 16.9246 80.0925 16.3632C79.7815 15.8019 79.626 15.1647 79.626 14.4517C79.6185 13.7387 79.7701 13.1016 80.0811 12.5403C80.3997 11.9714 80.8282 11.5314 81.3668 11.2205C81.9053 10.9019 82.5008 10.7464 83.1531 10.754C83.8055 10.7464 84.3857 10.8981 84.894 11.2091C85.4097 11.5125 85.8041 11.9486 86.0772 12.5175C86.3578 13.0788 86.4982 13.7236 86.4982 14.4517C86.4982 15.1799 86.3578 15.8247 86.0772 16.3859C85.8041 16.9473 85.4097 17.3872 84.894 17.7058Z" fill="white"/>
<path d="M40.5691 4.01831H44.119L47.2945 15.6153L50.6726 4.01831H53.6308L57.2945 15.3825L60.3437 4.01831H63.5977L58.7963 20.7664H55.7357L52.0102 9.66441L48.5905 20.7664H45.4957L40.5691 4.01831Z" fill="white"/>
<path fill-rule="evenodd" clip-rule="evenodd" d="M68.8403 21.0621C67.6038 21.0698 66.4888 20.7966 65.4952 20.243C64.5091 19.6816 63.7317 18.9041 63.1627 17.9105C62.6014 16.9169 62.3208 15.7829 62.3208 14.5085C62.3208 13.2721 62.6091 12.1534 63.1856 11.1521C63.7619 10.1509 64.5432 9.36962 65.5293 8.80832C66.5154 8.24702 67.6152 7.96637 68.8288 7.96637C70.1942 7.96637 71.3888 8.26977 72.4128 8.87658C73.4444 9.48339 74.2143 10.3443 74.7225 11.4593C75.2383 12.5668 75.4242 13.8373 75.2801 15.2709H65.5342C65.5614 15.842 65.7039 16.3616 65.9617 16.8296C66.2499 17.3454 66.6519 17.7474 67.1677 18.0356C67.6835 18.3239 68.2599 18.468 68.8972 18.468C69.3826 18.4604 69.8339 18.377 70.2511 18.2178C70.6683 18.0509 71.0209 17.8271 71.3092 17.5464C71.605 17.2658 71.8137 16.9473 71.9351 16.5908H75.1891C74.9918 17.463 74.5974 18.2405 74.0058 18.9231C73.414 19.5983 72.6708 20.1254 71.7757 20.5046C70.8807 20.8839 69.9022 21.0698 68.8403 21.0621ZM65.9731 12.142C65.7913 12.459 65.6653 12.8003 65.5952 13.166H72.0555C72.0087 12.704 71.8661 12.283 71.6278 11.9031C71.3547 11.4555 70.9831 11.1104 70.5128 10.8677C70.0425 10.6174 69.5116 10.4922 68.9199 10.4922C68.2903 10.4922 67.7177 10.6363 67.2018 10.9246C66.6861 11.2128 66.2764 11.6186 65.9731 12.142Z" fill="white"/>
<path d="M92.0168 8.22808C92.0168 7.21167 92.248 6.30903 92.7108 5.52017C93.1734 4.72373 93.822 4.10553 94.6564 3.6656C95.4983 3.21807 96.4807 2.98672 97.6032 2.97156V5.73635C97.0798 5.74393 96.6323 5.85392 96.2607 6.06631C95.8965 6.27111 95.6159 6.57072 95.4187 6.96515C95.2372 7.32827 95.1392 7.74925 95.1248 8.22808H97.5349V10.8563H95.1229V20.7664H92.0168V10.8563H90.0143V8.22808H92.0168Z" fill="white"/>
<path fill-rule="evenodd" clip-rule="evenodd" d="M109.834 21.0393C108.567 21.0393 107.433 20.7625 106.432 20.2088C105.438 19.6475 104.657 18.8738 104.088 17.8877C103.527 16.8941 103.246 15.7677 103.246 14.5085C103.246 13.2418 103.527 12.1116 104.088 11.118C104.657 10.1167 105.438 9.33923 106.432 8.78551C107.433 8.23179 108.567 7.95493 109.834 7.95493C111.108 7.95493 112.246 8.23179 113.247 8.78551C114.256 9.33923 115.041 10.1129 115.602 11.1066C116.164 12.1002 116.448 13.2342 116.456 14.5085C116.448 15.7677 116.164 16.8941 115.602 17.8877C115.049 18.8738 114.267 19.6475 113.258 20.2088C112.25 20.7625 111.108 21.0393 109.834 21.0393ZM109.834 18.1836C110.501 18.1836 111.093 18.0318 111.609 17.7285C112.125 17.4175 112.523 16.9851 112.803 16.4313C113.084 15.8701 113.224 15.2291 113.224 14.5085C113.224 13.7803 113.084 13.1356 112.803 12.5743C112.523 12.013 112.125 11.5807 111.609 11.2772C111.093 10.9663 110.501 10.8108 109.834 10.8108C109.174 10.8108 108.586 10.9663 108.07 11.2772C107.562 11.5807 107.168 12.013 106.887 12.5743C106.606 13.1356 106.47 13.7803 106.477 14.5085C106.477 15.2291 106.618 15.8701 106.898 16.4313C107.187 16.9851 107.581 17.4175 108.082 17.7285C108.59 18.0318 109.174 18.1836 109.834 18.1836Z" fill="white"/>
<path d="M119.812 8.22806H116.353L120.097 20.7664H123.123L125.585 12.7581L128.243 20.7664H131.224L134.979 8.22806H131.85L129.72 16.0324L127.366 8.22806H124.341L121.998 16.2043L119.812 8.22806Z" fill="white"/>
</svg>
